<svg xmlns="http://www.w3.org/2000/svg" viewBox="0 0 750 500"><g id="freepik--background-complete--inject-243"><path d="M225.38,178.47a3,3,0,0,1,3.15,0c.26.16.53.32.81.46l.84.43a3,3,0,0,1,1.75,2.6l.12,3.88,12.63-.39-.11-3.88a3,3,0,0,1,1.58-2.72,16.39,16.39,0,0,0,1.6-1,3,3,0,0,1,3.14-.2l3.41,1.83,6-11.15-3.41-1.82a3,3,0,0,1-1.56-2.73,16.79,16.79,0,0,0-.07-1.88,3,3,0,0,1,1.4-2.83l3.29-2-6.66-10.74L250,148.37a3,3,0,0,1-3.14,0c-.26-.16-.53-.32-.81-.46s-.55-.29-.83-.42a3,3,0,0,1-1.76-2.62l-.12-3.88-12.63.39.12,3.87A3,3,0,0,1,229.2,148a17.83,17.83,0,0,0-1.61,1,3,3,0,0,1-3.14.2L221,147.33l-6,11.14,3.41,1.83a3,3,0,0,1,1.57,2.72,14.92,14.92,0,0,0,.06,1.89,3,3,0,0,1-1.4,2.83l-3.29,2,6.66,10.73Zm3.16-19.94a10.35,10.35,0,1,1,4.24,14A10.36,10.36,0,0,1,228.54,158.53Z" style="fill:#dbdbdb"></path><path d="M653.48,183.25a2.12,2.12,0,0,1,1,2c0,.22,0,.43,0,.65s0,.44,0,.66a2.13,2.13,0,0,1-1,1.95l-2.36,1.35,4.43,7.67,2.35-1.36a2.14,2.14,0,0,1,2.21.08,10.59,10.59,0,0,0,1.14.66,2.1,2.1,0,0,1,1.16,1.87v2.71h8.86v-2.71a2.1,2.1,0,0,1,1.16-1.87,13,13,0,0,0,1.14-.66,2.14,2.14,0,0,1,2.21-.08l2.35,1.36,4.43-7.67-2.37-1.36a2.1,2.1,0,0,1-1-2c0-.21,0-.43,0-.65s0-.43,0-.65a2.09,2.09,0,0,1,1-2l2.36-1.36-4.43-7.67-2.35,1.36a2.1,2.1,0,0,1-2.2-.08,11.82,11.82,0,0,0-1.15-.66,2.1,2.1,0,0,1-1.16-1.87v-2.71h-8.86V173a2.12,2.12,0,0,1-1.16,1.87,11.82,11.82,0,0,0-1.15.66,2.12,2.12,0,0,1-2.21.08l-2.34-1.36-4.43,7.67Zm13.36-4.65a7.26,7.26,0,1,1-7.24,7.26A7.27,7.27,0,0,1,666.84,178.6Z" style="fill:#dbdbdb"></path><path d="M67.19,89.84a34.48,34.48,0,1,0,34.48-34.48A34.48,34.48,0,0,0,67.19,89.84Zm18.37,0a16.11,16.11,0,1,1,16.11,16.1A16.1,16.1,0,0,1,85.56,89.84Z" style="fill:#ebebeb"></path><polygon points="95.04 56.79 108.3 56.79 107.57 47.41 95.77 47.41 95.04 56.79" style="fill:#ebebeb"></polygon><polygon points="120.28 61.26 129.66 70.64 135.77 63.48 127.43 55.14 120.28 61.26" style="fill:#ebebeb"></polygon><polygon points="134.97 82.27 134.97 95.53 144.35 94.79 144.35 83 134.97 82.27" style="fill:#ebebeb"></polygon><polygon points="130.5 107.5 121.12 116.88 128.28 123 136.62 114.66 130.5 107.5" style="fill:#ebebeb"></polygon><polygon points="109.49 122.19 96.23 122.19 96.97 131.58 108.76 131.58 109.49 122.19" style="fill:#ebebeb"></polygon><polygon points="84.25 117.72 74.88 108.35 68.76 115.5 77.1 123.84 84.25 117.72" style="fill:#ebebeb"></polygon><polygon points="69.57 96.72 69.57 83.46 60.18 84.19 60.18 95.98 69.57 96.72" style="fill:#ebebeb"></polygon><polygon points="74.03 71.48 83.41 62.1 76.26 55.98 67.92 64.32 74.03 71.48" style="fill:#ebebeb"></polygon><ellipse cx="615.14" cy="89.84" rx="47.1" ry="46.38" transform="translate(328.19 641.32) rotate(-70.82)" style="fill:#ebebeb"></ellipse><ellipse cx="615.14" cy="89.84" rx="36.74" ry="36.18" transform="translate(328.15 641.3) rotate(-70.82)" style="fill:#fff"></ellipse><path d="M641.27,89.42a26.62,26.62,0,0,1-26,26.87,26,26,0,0,1-26.3-26A26.62,26.62,0,0,1,615,63.4,26,26,0,0,1,641.27,89.42Z" style="fill:#ebebeb"></path><path d="M631.05,89.58a16.2,16.2,0,0,1-15.8,16.36,15.82,15.82,0,0,1-16-15.84A16.2,16.2,0,0,1,615,73.75,15.81,15.81,0,0,1,631.05,89.58Z" style="fill:#fff"></path><path d="M622.22,89.73a7.2,7.2,0,0,1-7,7.28A7,7,0,0,1,608.06,90a7.2,7.2,0,0,1,7-7.28A7,7,0,0,1,622.22,89.73Z" style="fill:#ebebeb"></path><rect x="580.5" y="33.41" width="0.8" height="76.85" transform="translate(248.11 553.36) rotate(-62.4)" style="fill:#c7c7c7"></rect><polygon points="543.79 55.64 543.96 55.57 547.08 54.6 540.94 51.39 537.61 52.4 543.79 55.64" style="fill:#c7c7c7"></polygon><path d="M540.2,47.45l1.1,3.24,6.15,3.21a14.62,14.62,0,0,1-1.09-3.23Z" style="fill:#c7c7c7"></path><polygon points="616.63 89.05 615.35 91.36 611.93 91.07 614.17 89.23 614.4 86.35 616.63 89.05" style="fill:#c7c7c7"></polygon><path d="M349.4,171a12.48,12.48,0,0,1-5.88,10.6H330.21A12.53,12.53,0,1,1,349.4,171Z" style="fill:#ebebeb"></path><rect x="323.6" y="181.57" width="26.56" height="3.83" style="fill:#ebebeb"></rect><rect x="309.97" y="234.29" width="53.8" height="3.83" style="fill:#dbdbdb"></rect><rect x="309.97" y="245.03" width="53.8" height="3.83" style="fill:#dbdbdb"></rect><rect x="311.98" y="238.12" width="49.79" height="6.91" style="fill:#ebebeb"></rect><rect x="326.04" y="185.4" width="21.67" height="3.83" style="fill:#dbdbdb"></rect><path d="M358.87,234.29h-44s10-10,12.14-22c1.75-10.14,2.61-23,2.61-23h14.52s.86,12.86,2.62,23C348.84,224.26,358.87,234.29,358.87,234.29Z" style="fill:#ebebeb"></path><path d="M405.35,275.66l-6.14,4.69a8.48,8.48,0,0,1-3.95.89h0a2.5,2.5,0,0,1-1.59-.34c-.39-.42-1.53-.69-3.24-.69-3,0-6.84.84-8.54,1.87s-.6,1.87,2.58,1.87a24.59,24.59,0,0,0,5.55-.69,12.1,12.1,0,0,1,2.7-.34h0c1.51,0,2.11.4,1.35.89l-7.76,4.69H371.1a12.74,12.74,0,0,0-4.68.89h0c-.55.28-.63.53-.27.71.69.34.53.86-.66,1.44-2.14,1-6.77,1.87-10.31,1.87s-4.52-.83-2.23-1.87a22.74,22.74,0,0,1,5.38-1.44,10.58,10.58,0,0,0,2.61-.71h0c1-.49.53-.89-1.08-.89H344.65l10-4.69a12.31,12.31,0,0,1,4.52-.89h0c.85,0,1.36.13,1.48.34.24.42,1.32.69,3.11.69,3.18,0,7.29-.84,9.15-1.87s.77-1.87-2.27-1.87a25.17,25.17,0,0,0-5.5.69,13.07,13.07,0,0,1-2.75.34h0c-1.48,0-1.91-.4-1-.89l8.35-4.69h13a8.11,8.11,0,0,0,3.79-.89h0c.4-.28.4-.53.07-.71-.65-.34-.63-.86.19-1.44,1.41-1,4.68-1.87,7.36-1.87s3.86.83,2.59,1.87a9.93,9.93,0,0,1-3.71,1.44,5.54,5.54,0,0,0-1.91.71h0c-.69.49-.14.89,1.23.89Z" style="fill:#ebebeb"></path><path d="M246,299h24c2.53,0,3.95.66,3.18,1.48h0a6.44,6.44,0,0,1-2.92,1.16c-2.74.57-5,1.43-6,2.39-1.74,1.7,1.33,3.08,6.87,3.08s11.28-1.38,12.82-3.08c.86-1,.23-1.82-1.44-2.39-.85-.29-1.15-.71-.74-1.16h0c.73-.82,3.37-1.48,5.9-1.48h24l-5.76,7.73c-.63.81,1,1.47,3.69,1.47h0a15.93,15.93,0,0,0,4.24-.57,31.63,31.63,0,0,1,8.55-1.13c5.53,0,9.14,1.38,8.06,3.08s-6.65,3.08-12.37,3.08a17.59,17.59,0,0,1-7.15-1.13,8.38,8.38,0,0,0-3.45-.57h0c-2.71,0-5.45.66-6.11,1.48l-6.53,7.72H267.72c-2.85,0-4.48-.66-3.63-1.48h0a7.33,7.33,0,0,1,3.18-1.16c3-.57,5.31-1.43,6.25-2.38,1.66-1.71-1.63-3.09-7.33-3.09s-11.8,1.38-13.66,3.09c-1.05.95-.49,1.81,1.26,2.38.91.29,1.21.71.72,1.16h0c-.9.82-3.94,1.48-6.8,1.48H220.65l9.63-7.72c1-.82-.41-1.48-3.12-1.48h0a19.91,19.91,0,0,0-4.6.57,40.9,40.9,0,0,1-9.44,1.13c-5.73,0-8.48-1.38-6.17-3.08s8.6-3.08,14.13-3.08c3.11,0,5.36.44,6.35,1.13a6.18,6.18,0,0,0,3.11.57h0c2.67,0,5.62-.66,6.58-1.47Z" style="fill:#ebebeb"></path><path d="M601.17,354l13.24-10.76a11,11,0,0,1,6.31-2.06h0c1.23,0,2,.31,2.3.8.52,1,2.22,1.57,4.86,1.57,4.69,0,10.35-1.92,12.57-4.29s.22-4.29-4.19-4.29a21.51,21.51,0,0,0-7.68,1.58,11,11,0,0,1-3.85.79h0c-2.15,0-2.94-.92-1.79-2.05l9.82-10.76h18.46c1.95,0,4.12-.92,4.82-2.06h0a1.11,1.11,0,0,0-.36-1.62,2.32,2.32,0,0,1-.66-3.32c1.28-2.38,5.24-4.3,8.94-4.3s6,1.92,5,4.3a7.58,7.58,0,0,1-4.18,3.32,4.25,4.25,0,0,0-2.22,1.62h0c-.64,1.14.4,2.06,2.34,2.06h18.46l-5.5,10.76c-.69,1.13-3,2.05-5.16,2.05h0a3.36,3.36,0,0,1-2.52-.79c-.83-1-2.65-1.58-5.13-1.58-4.41,0-9.45,1.92-11.36,4.29s.1,4.29,4.79,4.29a21,21,0,0,0,7.78-1.57,10,10,0,0,1,3.76-.8h0c2.2,0,3.34.92,2.51,2.06L663.56,354H640.78c-2.4,0-5.37.92-6.64,2.06h0c-.72.63-.73,1.22-.13,1.62,1.18.79,1.14,2-.43,3.32-2.85,2.37-9.59,4.29-15,4.29s-7.14-1.92-4-4.29a22.23,22.23,0,0,1,7.63-3.32,10,10,0,0,0,3.67-1.62h0c1.33-1.14.45-2.06-2-2.06Z" style="fill:#ebebeb"></path></g><g id="freepik--Floor--inject-243"><path d="M59.29,249.32c202.26-.61,429.16-.62,631.42,0-202.26.62-429.16.61-631.42,0Z" style="fill:#263238"></path></g><g id="freepik--Lightbulb--inject-243"><path d="M493.9,69.68a49.74,49.74,0,0,1-.26-14.26,49.38,49.38,0,0,1,.26,14.26Z" style="fill:#263238"></path><path d="M461.34,78.76A49.6,49.6,0,0,1,454,66.54a49.66,49.66,0,0,1,7.35,12.22Z" style="fill:#263238"></path><path d="M437.69,102.91A49.3,49.3,0,0,1,425.21,96a49.61,49.61,0,0,1,12.48,6.91Z" style="fill:#263238"></path><path d="M429.28,135.64a49.38,49.38,0,0,1-14.26.26,49.74,49.74,0,0,1,14.26-.26Z" style="fill:#263238"></path><path d="M438.37,168.2a49.66,49.66,0,0,1-12.22,7.35,49.3,49.3,0,0,1,12.22-7.35Z" style="fill:#263238"></path><path d="M551.45,167a49.58,49.58,0,0,1,12.48,6.9,49.44,49.44,0,0,1-12.48-6.9Z" style="fill:#263238"></path><path d="M559.87,134.3a49.31,49.31,0,0,1,14.25-.27,49.67,49.67,0,0,1-14.25.27Z" style="fill:#263238"></path><path d="M550.78,101.74A49.51,49.51,0,0,1,563,94.38a49.51,49.51,0,0,1-12.22,7.36Z" style="fill:#263238"></path><path d="M526.64,78.09a49.58,49.58,0,0,1,6.9-12.48,50.07,50.07,0,0,1-6.9,12.48Z" style="fill:#263238"></path><g style="opacity:0.5"><path d="M550,138.29c-2.75,34.42-31.42,44.79-31.42,44.79-2.1,5.23-4.85,18.54-4.85,18.54H475.44s-2.75-13.31-4.86-18.54c0,0-28.67-10.37-31.41-44.79C437.26,114.38,454.28,79,494.37,79h.41C534.86,79,551.89,114.38,550,138.29Z" style="fill:#0BBEB2"></path></g><g style="opacity:0.7000000000000001"><path d="M545.25,138.47c-2.51,31.47-28.73,41-28.73,41-1.93,4.78-4.45,22.19-4.45,22.19h-35s-2.51-17.41-4.44-22.19c0,0-26.22-9.49-28.73-41-1.75-21.87,13.82-54.2,50.48-54.21h.38C531.42,84.27,547,116.6,545.25,138.47Z" style="fill:#0BBEB2"></path></g><rect x="478.15" y="144.09" width="3" height="61.3" transform="translate(-23.92 91) rotate(-10.58)" style="fill:#263238"></rect><rect x="478.86" y="173.24" width="61.3" height="3" transform="translate(244.36 643.59) rotate(-79.44)" style="fill:#263238"></rect><path d="M494.58,164.66c-3.42,0-6.56-3.14-8.78-7.19a4.52,4.52,0,0,1-3.25,1.74c-5.69,0-8-11.71-8.06-12.2l1-.19c0,.11,2.22,11.39,7.08,11.39h0a3.89,3.89,0,0,0,2.74-1.71,25.68,25.68,0,0,1-2.8-10.7c0-3.29,1.24-5.18,3.4-5.18h0c2.51,0,3.95,2,3.95,5.5a19.86,19.86,0,0,1-3.36,10.52c2.06,3.92,5,7,8.1,7h0c2.34,0,4.7-1.85,6.64-5.2.16-.28.32-.57.47-.87a15.61,15.61,0,0,1-3.47-10.13c0-4.22,1.59-6.84,4.15-6.84a2.69,2.69,0,0,1,2.4,1.48c1.68,2.91.76,9.86-1.88,15.34a5.48,5.48,0,0,0,3.78,1.55h0c3.46,0,6.52-8.28,7.41-11.47l1,.27c-.14.5-3.44,12.2-8.37,12.2h0a6.44,6.44,0,0,1-4.24-1.66c-.11.21-.23.42-.35.63C500.58,161.56,498.06,164.66,494.58,164.66Zm7.79-23c-2.33,0-3.15,3.15-3.15,5.84a15.55,15.55,0,0,0,2.93,9.19c2.36-5.09,3.23-11.49,1.75-14.05A1.7,1.7,0,0,0,502.37,141.62Zm-16.48,0c-2.09,0-2.4,2.62-2.4,4.18a24.66,24.66,0,0,0,2.47,9.78,19.07,19.07,0,0,0,2.88-9.46C488.84,144.07,488.33,141.62,485.89,141.62Z" style="fill:#263238"></path><rect x="470.6" y="201.66" width="47.94" height="26.39" style="fill:#c7c7c7"></rect><path d="M513.11,228.05c-2.82,5-8.23,9.47-18.54,9.47s-15.71-4.47-18.53-9.47Z" style="fill:#c7c7c7"></path><path d="M513.11,228.05a17.59,17.59,0,0,1-3.11,4l-33-2.53a13.77,13.77,0,0,1-1-1.52Z" style="fill:#a6a6a6"></path><polygon points="519.95 206.69 469.2 211.39 469.2 209.09 519.95 204.39 519.95 206.69" style="fill:#a6a6a6"></polygon><polygon points="519.95 213.66 469.2 218.35 469.2 216.05 519.95 211.36 519.95 213.66" style="fill:#a6a6a6"></polygon><polygon points="519.95 220.63 469.2 225.32 469.2 223.02 519.95 218.32 519.95 220.63" style="fill:#a6a6a6"></polygon><g style="opacity:0.5"><path d="M451.24,130.25c1.76.3,4-8.77,13.79-19.27,4.33-4.67,20.77-10.5,19.59-15.89s-15.85.16-23.23,8.7C449.52,117.55,449.63,130,451.24,130.25Z" style="fill:#fff"></path><path d="M537.73,132.14c3.24,0,3.24-5,0-5S534.49,132.14,537.73,132.14Z" style="fill:#fff"></path><path d="M521.91,169.93c1.77,1.35,10.35-6.57,14.22-16,3.21-7.84,3.76-17.76,1.6-18.33s-3.56,13-6.15,18C528.3,159.94,520,168.49,521.91,169.93Z" style="fill:#fff"></path></g></g><g id="freepik--Arrow--inject-243"><path d="M529.16,267.85h-30l-15.9,23.66h-8.83a3.25,3.25,0,0,0-2,.48c-.1.16.06.3.4.39.67.19,1,.47.77.79-.38.56-2.29,1-4.26,1s-3.26-.46-2.88-1a3.29,3.29,0,0,1,1.84-.79,1.55,1.55,0,0,0,.93-.39c.18-.27-.43-.48-1.38-.48h-9l-1.74,2.55a3.23,3.23,0,0,1-2,.49,3.19,3.19,0,0,1-1.23-.19,6.65,6.65,0,0,0-2.51-.37c-2,0-3.88.46-4.27,1s.91,1,2.89,1a11.54,11.54,0,0,0,3-.38,6.14,6.14,0,0,1,1.49-.18c.94,0,1.56.21,1.38.48l-1.74,2.56h9a3.27,3.27,0,0,0,2.05-.49c.1-.15-.06-.29-.41-.38-.67-.19-1-.47-.77-.79.38-.57,2.29-1,4.27-1s3.26.45,2.88,1a3.3,3.3,0,0,1-1.85.79,1.7,1.7,0,0,0-.93.38c-.18.27.44.49,1.38.49h8.88l-49.62,73.81H406.59c-2.63,0-4-1.24-3.16-2.78a5.86,5.86,0,0,1,3-2.19c2.69-1.06,4.82-2.68,5.64-4.48,1.36-3.21-1.69-5.8-6.69-5.8s-10.35,2.59-12.08,5.8a3.12,3.12,0,0,0,.9,4.48,1.5,1.5,0,0,1,.48,2.19c-.95,1.54-3.88,2.78-6.51,2.78H363.24L350,386.85c-1.56,1.53-.49,2.78,2.41,2.78a14.94,14.94,0,0,0,5.2-1.08A29.06,29.06,0,0,1,368,386.43c6,0,8.54,2.59,5.66,5.79S363,398,356.64,398c-3.56,0-5.86-.82-6.55-2.12-.35-.66-1.45-1.08-3.12-1.08-3,0-6.78,1.25-8.51,2.78l-17.89,14.53h30.76c3.25,0,4.44,1.24,2.64,2.78a13.41,13.41,0,0,1-5,2.19,30,30,0,0,0-10.3,4.48c-4.23,3.21-1.86,5.8,5.4,5.8s16.37-2.59,20.23-5.8c2.11-1.8,2.17-3.42.57-4.48-.81-.54-.8-1.33.18-2.19,1.72-1.54,5.72-2.78,9-2.78h28.11l-45.69,68H318.66c-3.53,0-5.56-.93-5.56-2.29a2.74,2.74,0,0,1,1.08-1.87,17.64,17.64,0,0,1,6.92-3.27c5.76-1.59,10.8-4,13.47-6.7,4.6-4.79.33-8.67-9.39-8.67s-21.62,3.88-26.74,8.67c-2.95,2.69-3,5.11-.68,6.7a1.69,1.69,0,0,1,.88,1.39,2.72,2.72,0,0,1-1.11,1.88c-2.61,2.3-8.79,4.16-13.77,4.16H236.55L208.76,500H90.49L287.37,372.2h24.34c3.13,0,4.08,1,2.1,2.23a17.24,17.24,0,0,1-5.09,1.76,37.17,37.17,0,0,0-10.49,3.6c-4.45,2.57-2.53,4.65,4.36,4.65s15.92-2.08,20.1-4.65c2.31-1.45,2.63-2.75,1.28-3.6-.69-.44-.54-1.07.54-1.76,1.91-1.23,6-2.23,9.12-2.23h29.65l15.13-11.66c1.49-1.23.3-2.23-2.63-2.23a18.53,18.53,0,0,0-5.26.86,38.38,38.38,0,0,1-10.82,1.71c-6.21,0-8.42-2.09-5-4.65s10.71-4.65,16.64-4.65c3.34,0,5.56.66,6.32,1.7.39.53,1.49.86,3.09.86,2.88,0,6.33-1,7.7-2.23l12-11.66H375c-2.67,0-3.74-1-2.4-2.23a9.48,9.48,0,0,1,3.72-1.76c3.09-.85,5.8-2.15,7.23-3.6,2.47-2.57.18-4.65-5-4.65s-11.61,2.08-14.36,4.65c-1.59,1.45-1.63,2.75-.37,3.6.65.44.65,1.07-.13,1.76-1.39,1.23-4.71,2.23-7.39,2.23H336.59l111.54-72.4h-30l77.32-18.07Z" style="fill:#0BBEB2"></path><path d="M337.07,356.23c-3.61,2.56-11.63,4.65-17.83,4.65-3.49,0-5.61-.67-6.06-1.71-.24-.53-1.24-.86-2.88-.86a16.42,16.42,0,0,0-1.68.1l6.69-4.35a9.16,9.16,0,0,0,1.25.08,19.92,19.92,0,0,0,5.36-.86,39.31,39.31,0,0,1,10.73-1.7C338.58,351.58,340.59,353.66,337.07,356.23Z" style="fill:#0BBEB2"></path><path d="M417.31,389.62l-3.5,5.2h-.31a13.58,13.58,0,0,0-5.08,1.08A28.28,28.28,0,0,1,397.91,398c-6.33,0-9.16-2.59-6.46-5.79s9.38-5.79,15.33-5.79c3.35,0,5.81.82,6.93,2.12a4.57,4.57,0,0,0,3.41,1.08Z" style="fill:#0BBEB2"></path><polygon points="356.49 480.09 356.49 480.09 347.45 493.53 356.49 480.09" style="fill:#fff"></polygon></g><g id="freepik--Shadows--inject-243"><ellipse cx="566.26" cy="448.39" rx="121.94" ry="11.62" style="fill:#000102;opacity:0.1"></ellipse><ellipse cx="158.27" cy="424.41" rx="108.04" ry="11.62" style="fill:#000102;opacity:0.1"></ellipse></g><g id="freepik--speech-bubble--inject-243"><path d="M256,97.63a26.07,26.07,0,0,1-43.57,16.49l-13,1.92,6.53-11.28A26.07,26.07,0,0,1,232.73,69,26.1,26.1,0,0,1,256,97.63Z" style="fill:#fff"></path><path d="M256,97.63a26.29,26.29,0,0,1-5.27,13.22,28.92,28.92,0,0,1-2.36,2.72,30.5,30.5,0,0,1-2.75,2.33,25.68,25.68,0,0,1-6.29,3.5,26.05,26.05,0,0,1-7,1.67,29.86,29.86,0,0,1-7.23-.3,26.38,26.38,0,0,1-12.9-6.37l.31.09-13,2-.95.15.48-.84,6.49-11.29,0,.44A26.33,26.33,0,1,1,256,97.63Zm0,0a25.8,25.8,0,0,0-29.57-28.22,25.62,25.62,0,0,0-10.77,4.26,26.79,26.79,0,0,0-7.8,8.51,25.64,25.64,0,0,0-3.31,11,26.26,26.26,0,0,0,1.83,11.36l.1.23-.13.21-6.56,11.26-.47-.69,13.06-1.83.18,0,.13.12a25.68,25.68,0,0,0,12.48,6.43,23.44,23.44,0,0,0,3.54.43,26.58,26.58,0,0,0,3.57,0,25.58,25.58,0,0,0,7-1.53,24.36,24.36,0,0,0,6.29-3.39,28.87,28.87,0,0,0,2.75-2.3,30.31,30.31,0,0,0,2.38-2.69A26.26,26.26,0,0,0,256,97.63Z" style="fill:#263238"></path><path d="M224,95.84a2.38,2.38,0,0,0,2.39,2.38,2.35,2.35,0,0,0,1.83-.87,1.16,1.16,0,0,1,.91-.44,1.15,1.15,0,0,1,1.15,1.14v6H213.85v-6A1.13,1.13,0,0,1,215,96.91a1.16,1.16,0,0,1,.9.44,2.41,2.41,0,0,0,1.85.87,2.39,2.39,0,1,0-1.85-3.89,1.19,1.19,0,0,1-.9.44,1.13,1.13,0,0,1-1.14-1.14v-6h6a1.14,1.14,0,0,0,.7-2,2.42,2.42,0,0,1-.87-1.85,2.39,2.39,0,1,1,4.77,0,2.37,2.37,0,0,1-.88,1.85,1.14,1.14,0,0,0,.7,2h6v6a1.15,1.15,0,0,1-1.15,1.14,1.19,1.19,0,0,1-.91-.44,2.33,2.33,0,0,0-1.83-.88A2.39,2.39,0,0,0,224,95.84Z" style="fill:#0BBEB2"></path><path d="M247,85.58l2.55,16.18-5.9.93a1.14,1.14,0,0,1-1.31-1,1.18,1.18,0,0,1,.3-1,2.39,2.39,0,0,0-2.16-3.94,2.39,2.39,0,0,0-.83,4.41,1.14,1.14,0,0,1-.37,2.13l-5.91.93-.93-5.9a1.13,1.13,0,0,0-1.3-1,1.15,1.15,0,0,0-.83.57,2.34,2.34,0,0,1-1.68,1.15,2.38,2.38,0,0,1-.74-4.71,2.34,2.34,0,0,1,2,.58,1.21,1.21,0,0,0,1,.3,1.14,1.14,0,0,0,1-1.31l-.93-5.91,5.91-.93a1.15,1.15,0,0,1,1.31,1,1.21,1.21,0,0,1-.3,1,2.34,2.34,0,0,0-.57,1.95,2.38,2.38,0,1,0,3.56-2.42,1.15,1.15,0,0,1,.37-2.14Z" style="fill:#455a64"></path></g><g id="freepik--character-2--inject-243"><path d="M465.73,449c-2.36-.72-.47-7.53,2.08-9.69a66.94,66.94,0,0,1,7.64-4.31c8.37-4.31,20.41-10.11,20.41-10.11l-11.63-43.73,42.35-1s12.72,41,12.73,43.6v.47c0,11.68-.35,21.25-1.29,21.88C535.5,447.8,468.11,449.68,465.73,449Z" style="fill:#eb9481"></path><path d="M465.73,449c2.38.72,69.77-1.15,72.29-2.86.94-.62,1.25-10.19,1.29-21.87,0-.15,0-.32,0-.48a49.41,49.41,0,0,0-1.49-6.14l-43.55,1.22,1.6,6s-12.05,5.8-20.42,10.11a67.42,67.42,0,0,0-7.63,4.31C465.26,441.43,463.37,448.24,465.73,449Z" style="fill:#ebebeb"></path><path d="M465,449.36c2.42.74,71-1.27,73.59-3,1-.64,1.28-10.65,1.28-22.77v-.38l-44.28.8,0,.76s-25.93,12.51-28.54,14.72S462.56,448.63,465,449.36Z" style="fill:#0BBEB2"></path><path d="M465.68,446.68c11.56-.63,58.24-2.05,69.71-1.78.09,0,.1.06,0,.07-11.44.87-58.13,1.91-69.7,1.9C465.45,446.86,465.44,446.69,465.68,446.68Z" style="fill:#263238"></path><path d="M490.65,424.27c4.53-1,10.12-.44,13.69,2.7.14.12,0,.32-.19.27a64,64,0,0,0-13.46-2.39A.29.29,0,0,1,490.65,424.27Z" style="fill:#263238"></path><path d="M487.43,426.35c4.52-1,10.11-.45,13.68,2.7.14.12,0,.31-.18.27a64.17,64.17,0,0,0-13.47-2.39A.29.29,0,0,1,487.43,426.35Z" style="fill:#263238"></path><path d="M484.2,428.43c4.52-1,10.11-.45,13.68,2.69.14.12,0,.32-.18.28a64,64,0,0,0-13.47-2.4A.29.29,0,0,1,484.2,428.43Z" style="fill:#263238"></path><path d="M486.67,420.94c3.3,2.41,7.52,3.31,11.31,4.59.4.14.7-.24.7-.59.08,0,.14-.07.1-.16a24.24,24.24,0,0,0-7.31-10.22c-2-1.54-5.31-2.56-7,0S484.75,419.54,486.67,420.94Zm-1.26-3.63c-1-5,4.49-2.5,5.88-1.31a27.14,27.14,0,0,1,2.49,2.54,71.8,71.8,0,0,1,4.4,5.87c-1.83-.74-3.7-1.32-5.56-2C490.41,421.61,485.93,420.06,485.41,417.31Z" style="fill:#263238"></path><path d="M513.78,417.4c-1.19-2.81-4.68-2.48-6.9-1.36a24.26,24.26,0,0,0-9.19,8.57.12.12,0,0,0,.06.18c-.06.34.16.77.57.72,4-.51,8.29-.55,12-2.26C512.48,422.25,514.9,420.05,513.78,417.4Zm-9.58,6.11c-2,.3-3.91.49-5.85.86a72.33,72.33,0,0,1,5.48-4.88,26.81,26.81,0,0,1,2.95-2c1.59-.89,7.41-2.23,5.5,2.46C511.22,422.53,506.52,423.16,504.2,423.51Z" style="fill:#263238"></path><path d="M586.24,350.86s8.36,27.26-4.66,35.77c-8.69,5.68-48-.73-49.8-5.52-3.4-9-3.5-12.39-3.5-12.39l11.4,48.13-49.24,2s-10.37-39.79-9.19-82.35c.44-15.74,21.43-21.09,36.34-13.69,14.46,7.18,40.57,27.5,40.57,27.5Z" style="fill:#263238"></path><path d="M534.73,388.6c-2.84-6.42-2.7-9-9.9-29-1-2.67-1.78-5.39-2.65-8.1s-1.95-5.58-2.65-8.44a.11.11,0,0,0-.22.06c.84,2.47,1.41,5,2.14,7.53s1.44,4.9,2.2,7.34c.32,1,.67,2.1,1,3.15l-.41-.64c-.61-1-1.22-1.95-1.85-2.92-1.3-2-2.85-3.84-4-5.91-.07-.13-.27,0-.19.11,1.31,2,2.26,4.19,3.49,6.22.6,1,1.22,1.95,1.86,2.91a18.42,18.42,0,0,0,1.84,2.56c1,3.09,3.14,10.53,4.2,13.6,3.32,9.66,2.23,6.52,4.65,11.69C534.37,389.08,534.85,388.88,534.73,388.6Z" style="fill:#37474f"></path><path d="M512.86,409.59c7.42-.28,14.81-.91,22.22-1.26.14,0,.15-.23,0-.22-7.39.16-14.78.08-22.17.38s-14.8.87-22.2,1.32c-.19,0-.22.31,0,.3C498.09,409.92,505.48,409.88,512.86,409.59Z" style="fill:#37474f"></path><path d="M531,406.61c-.77-3.26-1.81-6.45-2.77-9.65s-1.91-6.42-2.89-9.62c-2-6.4-4-12.77-6-19.15-1.15-3.62-2.4-7.22-3.62-10.82a.08.08,0,0,0-.16.05q5.5,19.31,11.74,38.4c1.17,3.61,2.25,7.28,3.63,10.82C530.88,406.71,531,406.68,531,406.61Z" style="fill:#37474f"></path><path d="M581.58,386.63c13-8.51,4.66-35.77,4.66-35.77l-23.66-.49L531.2,379.54c.18.51.37,1,.58,1.57C533.58,385.9,572.89,392.31,581.58,386.63Z" style="fill:#000102;opacity:0.1"></path><path d="M490.17,417.7c.17.73.27,1.11.27,1.11l49.24-2-8.77-37Z" style="fill:#000102;opacity:0.1"></path><path d="M690,449.71c.51,2.41-6.37,4-9.49,2.85a67.57,67.57,0,0,1-7.45-4.62c-7.82-5.26-18.7-13-18.7-13l-36.13,3.2L597,401.47s33.23-2.86,35.49-4.1l.41-.23c10.25-5.6,18.79-9.93,19.79-9.41C655.35,389.12,689.46,447.28,690,449.71Z" style="fill:#eb9481"></path><path d="M626.12,398.51l20.1,37.13,8.12-.72s10.87,7.76,18.69,13a66.6,66.6,0,0,0,7.45,4.62c3.12,1.2,10-.44,9.49-2.85s-34.62-60.59-37.32-62c-1-.52-9.54,3.81-19.79,9.41l-.41.23A33.59,33.59,0,0,1,626.12,398.51Z" style="fill:#ebebeb"></path><path d="M690.68,450.17c-.52-2.47-35.32-61.64-38.08-63.05-1-.55-10,4-20.57,9.85l-.33.18,22,38.42.64-.39S677.82,451.87,681,453.1,691.21,452.64,690.68,450.17Z" style="fill:#0BBEB2"></path><path d="M688,450.85c-6.11-9.83-29.83-50.05-35.13-60.23,0-.08,0-.12.06,0,6.27,9.61,29.67,50,35.24,60.18C688.27,451,688.12,451.06,688,450.85Z" style="fill:#263238"></path><path d="M656.34,439.76c-3.05-3.49-5.27-8.65-4.24-13.29,0-.18.3-.12.33,0a64.59,64.59,0,0,0,4.39,12.95A.29.29,0,0,1,656.34,439.76Z" style="fill:#263238"></path><path d="M659.71,441.59c-3-3.5-5.26-8.65-4.23-13.29,0-.18.29-.12.33,0a64,64,0,0,0,4.39,12.95A.29.29,0,0,1,659.71,441.59Z" style="fill:#263238"></path><path d="M663.08,443.42c-3-3.5-5.26-8.65-4.23-13.3,0-.18.3-.12.33,0a63.85,63.85,0,0,0,4.39,13A.29.29,0,0,1,663.08,443.42Z" style="fill:#263238"></path><path d="M655.33,444.85c.53-4-.72-8.18-1.42-12.12a.57.57,0,0,0-.85-.33.13.13,0,0,0-.2,0,24.34,24.34,0,0,0-5.44,11.33c-.41,2.45.33,5.89,3.36,6.18C653.64,450.18,655,447.21,655.33,444.85Zm-2.57,2.86c-3.9,3.22-4.36-2.73-4-4.52a26.61,26.61,0,0,1,1-3.4,73.19,73.19,0,0,1,3-6.69c.23,2,.62,3.88.92,5.83C654.11,441.25,654.91,445.93,652.76,447.71Z" style="fill:#263238"></path><path d="M639.17,422.81c-1.89,2.39.08,5.29,2.13,6.69a24.17,24.17,0,0,0,11.94,3.93.12.12,0,0,0,.13-.14.56.56,0,0,0,.35-.84c-2.35-3.25-4.47-7-7.75-9.43C644.05,421.6,641,420.55,639.17,422.81Zm10,5.45c1.2,1.57,2.32,3.18,3.57,4.71-2.33-.78-4.67-1.45-6.92-2.45a27.65,27.65,0,0,1-3.16-1.62c-1.56-1-5.53-5.43-.5-6C644.9,422.57,647.72,426.39,649.14,428.26Z" style="fill:#263238"></path><path d="M554.89,345a201.08,201.08,0,0,0-.57,20.2s-46.1,25.84-47.58,49.2c-.52,8.28,1,23.71,17.4,30.31,18.3,7.37,118.1-.86,118.1-.86l-13.77-45.67-44.09,1.25s31.25,4.08,34-16.75c2.6-19.35-9.8-39.19-9.8-39.19Z" style="fill:#263238"></path><path d="M631.86,441.89c-1.25-5.27-2.47-10.57-3.85-15.8s-2.84-10.48-4.38-15.69c-.43-1.47-.88-2.93-1.32-4.4-.21-.7-.42-1.39-.64-2.09a21.59,21.59,0,0,0-.71-2.1c0-.07-.11,0-.11.05a37.41,37.41,0,0,0,.91,4c.32,1.27.62,2.55.93,3.82.65,2.61,1.32,5.22,2,7.83,1.36,5.23,2.84,10.4,4.36,15.58q1.29,4.41,2.59,8.81C631.68,442.11,631.9,442.07,631.86,441.89Z" style="fill:#37474f"></path><path d="M599.6,399c-3.58-.15-7.16-.17-10.74-.14s-7.16.17-10.74.33-7.15.46-10.71.88a77.11,77.11,0,0,0-10.59,1.83l2.65-.42,2.66-.33c1.77-.2,3.55-.4,5.33-.53,3.56-.3,7.13-.55,10.7-.71s7.14-.35,10.71-.49Z" style="fill:#37474f"></path><path d="M598.94,347.55q2.56,6.09,4.51,12.4a82.35,82.35,0,0,1,2.91,12.83,36.65,36.65,0,0,1,.32,6.53,16.36,16.36,0,0,1-1.42,6.25,8.63,8.63,0,0,1-1.83,2.55,15.71,15.71,0,0,1-2.58,1.92,29.09,29.09,0,0,1-5.94,2.58,81.84,81.84,0,0,1-12.84,2.71c-4.34.62-8.72,1.1-13.09,1.67a97.65,97.65,0,0,0-13.06,2.41,26.12,26.12,0,0,0-6.23,2.5,29.27,29.27,0,0,0-5.37,4l-1,.91,1.34-.06,35.63-1.48,17.82-.65c5.94-.19,11.88-.36,17.83-.37-5.94-.18-11.89-.1-17.84,0s-11.89.21-17.83.36l-17.83.52-17.82.66.37.86a28.37,28.37,0,0,1,5.18-3.86,24.63,24.63,0,0,1,6-2.38,107.24,107.24,0,0,1,12.92-2.36c4.35-.59,8.73-1.09,13.1-1.74a83,83,0,0,0,13-2.81,28.05,28.05,0,0,0,6.11-2.73,16.26,16.26,0,0,0,2.69-2.06,9.64,9.64,0,0,0,2-2.81,17,17,0,0,0,1.4-6.56,37.74,37.74,0,0,0-.42-6.64,76.36,76.36,0,0,0-3.18-12.85A117.06,117.06,0,0,0,598.94,347.55Z" style="fill:#37474f"></path><path d="M560,344.38c0-.09-.16-.1-.17,0-.14,1.6-.44,10.72-.62,14.15-.07,1.23.06,3.41-1.72,3.45-1.41,0-2.15-1.48-2.34-2.67-.24-1.45.25-12,.33-15.56,0-.1-.16-.1-.18,0-.54,3.54-1.49,14.78-1.07,16.34a3.61,3.61,0,0,0,2.26,2.76,22.75,22.75,0,0,0,.18,4.15c0,.12.37.14.39,0h0c-.08-.83.26-4,.25-4.05a2.51,2.51,0,0,0,2.24-1.1C560.72,360.22,560.12,348.44,560,344.38Z" style="fill:#37474f"></path><path d="M565.79,371.24c-1.3-.84-2.64-1.61-4-2.36s-2.73-1.45-4.11-2.14-2.78-1.34-4.2-1.94-2.85-1.19-4.33-1.66c.68.38,1.36.72,2,1.1l2,1.06c1.36.72,2.74,1.4,4.12,2.09s2.77,1.35,4.18,2l2.1,1C564.36,370.64,565.07,371,565.79,371.24Z" style="fill:#37474f"></path><path d="M598.79,363c-2.49.06-10.21.73-14-2.28-3-2.44-4.61-11-5.19-13.36,0-.11-.2-.07-.2,0a27,27,0,0,0,1.23,7.87c.66,2.16,1.53,4.57,3.34,6.05s4.43,2.05,6.81,2.28a31.15,31.15,0,0,0,8-.34A.13.13,0,0,0,598.79,363Z" style="fill:#37474f"></path><path d="M556.05,299.38c-2.79,13.8-4.75,37.62-15.1,44.4-9.85,6.46-39-9.16-47.83-14.79-3.21-2,12.26-24.7,15.91-23.41,6.86,2.44,21.85,11.28,23.42,10.37s5.71-9.07,15.06-24.25C553.18,282.5,559.21,283.83,556.05,299.38Z" style="fill:#eb9481"></path><path d="M496.09,330.53c-3.08-.85-16.86-6-20.38-8.24s-13.16-9.58-11.68-12.45,4.46-1,4.46-1-3.58-3.73-1.83-6.48,6.3.37,6.3.37-3.4-4.09-1.46-6.72,6,1.29,6,1.29-3.29-3.6-.78-5.09c3-1.79,8.32,5.53,12.39,7.76.92.51,19.47,8.92,19.47,8.92Z" style="fill:#eb9481"></path><path d="M477.14,297c3.92,5.38,6.56,7.05,12.64,9.47.12,0,.08.23,0,.19-6.17-1.82-9.79-3.44-12.86-9.48C476.72,296.89,477,296.76,477.14,297Z" style="fill:#263238"></path><path d="M472.66,302.34c4.55,5.23,7.4,7.07,13.59,10.07.08,0,0,.19-.07.16-6.31-2.44-9.88-4.14-13.75-10C472.26,302.35,472.45,302.1,472.66,302.34Z" style="fill:#263238"></path><path d="M468.81,309c4.78,4.75,7.81,6.9,14.19,9a.12.12,0,0,1-.06.24c-6.72-1.55-10.53-4.21-14.26-9.12C468.43,308.85,468.51,308.73,468.81,309Z" style="fill:#263238"></path><path d="M441.61,268.06l18.57-3.81c2-.4,3.62,1.23,3.71,3.64h0a5.8,5.8,0,0,1-1.25,3.74,11.73,11.73,0,0,0-2.46,7.61c.18,5.05,3.64,8.45,7.73,7.61s7.26-5.6,7.07-10.64a8.52,8.52,0,0,0-3-6.51,4.12,4.12,0,0,1-1.5-3.17h0c-.09-2.41,1.43-4.69,3.39-5.1l16.47-5.71,2.1,1.9.83,22.88c.08,2.42,1.74,4.05,3.7,3.65h0a4.29,4.29,0,0,0,2.74-2.27,8.72,8.72,0,0,1,5.61-4.52c4.1-.84,7.56,2.57,7.74,7.6s-3,9.8-7.08,10.64a5.85,5.85,0,0,1-5.85-2.16,2.86,2.86,0,0,0-2.86-1.12h0c-2,.4-3.48,2.68-3.39,5.1l.82,22.88-18.57,3.81c-2,.4-3.62-1.23-3.71-3.65h0a5.8,5.8,0,0,1,1.25-3.73,11.77,11.77,0,0,0,2.46-7.62c-.18-5.05-3.64-8.45-7.73-7.61s-7.26,5.6-7.07,10.65a8.48,8.48,0,0,0,3,6.5,4.11,4.11,0,0,1,1.5,3.17h0c.09,2.42-1.43,4.7-3.39,5.1l-18.57,3.81-2.1-1.91,1.28-21c-.09-2.41-1.75-4.05-3.71-3.64h0a4.26,4.26,0,0,0-2.74,2.27A8.7,8.7,0,0,1,431,311c-4.1.84-7.56-2.56-7.74-7.6s3-9.8,7.08-10.64a5.86,5.86,0,0,1,5.85,2.17A2.9,2.9,0,0,0,439,296h0c2-.4,3.48-2.69,3.39-5.1Z" style="fill:#455a64"></path><path d="M441.61,268.06l18.57-3.81c2-.4,3.62,1.23,3.71,3.64h0a5.8,5.8,0,0,1-1.25,3.74,11.73,11.73,0,0,0-2.46,7.61c.18,5.05,3.64,8.45,7.73,7.61s7.26-5.6,7.07-10.64a8.52,8.52,0,0,0-3-6.51,4.12,4.12,0,0,1-1.5-3.17h0c-.09-2.41,1.43-4.69,3.39-5.1l16.47-5.71,2.1,1.9.83,22.88c.08,2.42,1.74,4.05,3.7,3.65h0a4.29,4.29,0,0,0,2.74-2.27,8.72,8.72,0,0,1,5.61-4.52c4.1-.84,7.56,2.57,7.74,7.6s-3,9.8-7.08,10.64a5.85,5.85,0,0,1-5.85-2.16,2.86,2.86,0,0,0-2.86-1.12h0c-2,.4-3.48,2.68-3.39,5.1l.82,22.88-18.57,3.81c-2,.4-3.62-1.23-3.71-3.65h0a5.8,5.8,0,0,1,1.25-3.73,11.77,11.77,0,0,0,2.46-7.62c-.18-5.05-3.64-8.45-7.73-7.61s-7.26,5.6-7.07,10.65a8.48,8.48,0,0,0,3,6.5,4.11,4.11,0,0,1,1.5,3.17h0c.09,2.42-1.43,4.7-3.39,5.1l-18.57,3.81-2.1-1.91,1.28-21c-.09-2.41-1.75-4.05-3.71-3.64h0a4.26,4.26,0,0,0-2.74,2.27A8.7,8.7,0,0,1,431,311c-4.1.84-7.56-2.56-7.74-7.6s3-9.8,7.08-10.64a5.86,5.86,0,0,1,5.85,2.17A2.9,2.9,0,0,0,439,296h0c2-.4,3.48-2.69,3.39-5.1Z" style="fill:#020100;opacity:0.1"></path><path d="M439.5,266.15l18.58-3.81c2-.4,3.62,1.23,3.7,3.65h0a5.74,5.74,0,0,1-1.25,3.73,11.78,11.78,0,0,0-2.46,7.61c.19,5.05,3.65,8.46,7.74,7.62s7.25-5.61,7.07-10.65a8.46,8.46,0,0,0-3-6.5,4.15,4.15,0,0,1-1.5-3.17h0c-.08-2.42,1.43-4.7,3.39-5.11l18.58-3.8.82,22.87c.09,2.42,1.75,4.05,3.71,3.65h0a4.32,4.32,0,0,0,2.74-2.27,8.7,8.7,0,0,1,5.61-4.52c4.1-.84,7.56,2.57,7.74,7.6s-3,9.8-7.08,10.64a5.84,5.84,0,0,1-5.85-2.16,2.88,2.88,0,0,0-2.87-1.12h0c-2,.4-3.47,2.68-3.39,5.1l.83,22.88-18.57,3.81c-2,.4-3.62-1.23-3.71-3.65h0a5.74,5.74,0,0,1,1.25-3.73,11.77,11.77,0,0,0,2.46-7.62c-.18-5-3.65-8.45-7.73-7.61s-7.26,5.6-7.08,10.65a8.49,8.49,0,0,0,3,6.5,4.14,4.14,0,0,1,1.5,3.17h0c.09,2.42-1.43,4.7-3.39,5.1l-18.57,3.81-.83-22.88c-.09-2.41-1.75-4-3.71-3.64h0a4.31,4.31,0,0,0-2.74,2.27,8.66,8.66,0,0,1-5.6,4.51c-4.1.84-7.56-2.56-7.75-7.6s3-9.8,7.09-10.64a5.88,5.88,0,0,1,5.85,2.17,2.87,2.87,0,0,0,2.86,1.12h0c2-.4,3.48-2.69,3.39-5.1Z" style="fill:#455a64"></path><path d="M513.11,308.46s-4.29-7.14-6.87-9.86-15.91-9.33-17.5-6.53c-2.05,3.61,4.89,8.94,8.64,11.11,0,0-4.76,8.35-.6,13.26S513.11,308.46,513.11,308.46Z" style="fill:#eb9481"></path><path d="M488.5,293.24c.51,4.65,5.6,7.18,9.08,9.55a.38.38,0,0,1,0,.63c-1.76,3.64-3.18,9.28-1.1,13a.1.1,0,0,1-.16.11c-2.78-3.69-1.83-9.34.36-13.2-3.61-2.38-8.61-5.14-8.25-10.08C488.46,293.22,488.5,293.21,488.5,293.24Z" style="fill:#263238"></path><path d="M515.75,306l-13.6,29.61s31.73,16.44,39.7,10.54c9.18-6.81,15.2-31.77,15.47-52,.18-14-7.56-10.81-11.93-2.21-4.56,9-13.13,22.68-14,22.73S515.75,306,515.75,306Z" style="fill:#37474f"></path><path d="M521.76,341.61a2.3,2.3,0,0,0-.83-.68,2,2,0,0,0-2.17.45,1.46,1.46,0,0,1-1.4.46,1.49,1.49,0,0,1-.76-.35c-.29-.17-.55-.36-.85-.51.17.29.4.54.58.81a2,2,0,0,0,.52.49l0,0a1.08,1.08,0,0,0,.3.16,1.24,1.24,0,0,0,.33.09h0a2,2,0,0,0,1.81-.61,1.5,1.5,0,0,1,1.39-.41,1.68,1.68,0,0,1,.76.37,6.72,6.72,0,0,0,.85.53A8.76,8.76,0,0,0,521.76,341.61Zm-3.58-34.13h0l-.81-.47a9,9,0,0,0,.84.52Zm-2.85-.56a1.5,1.5,0,0,1,1.27-.31l.25.07-1.11-.65Zm27,7a2,2,0,0,0-.83-.68,2,2,0,0,0-2.18.44,1.48,1.48,0,0,1-1.39.46,1.54,1.54,0,0,1-.76-.35c-.29-.17-.55-.36-.85-.53.17.29.37.54.56.82a2,2,0,0,0,.87.66,1.94,1.94,0,0,0,2.14-.51,1.46,1.46,0,0,1,1.4-.39,1.47,1.47,0,0,1,.77.36c.28.17.54.36.85.54C542.73,314.42,542.5,314.17,542.32,313.9Zm-7.7,17a2,2,0,0,0-1.89-1.17,1.48,1.48,0,0,1-1.28-.69,2,2,0,0,1-.26-.81c-.09-.33-.14-.65-.23-1a7.85,7.85,0,0,0-.16,1,1.9,1.9,0,0,0,.09,1.07,2,2,0,0,0,1.85,1.23,1.49,1.49,0,0,1,1.32.65,1.72,1.72,0,0,1,.3.79,6.9,6.9,0,0,0,.22,1,8.54,8.54,0,0,0,.17-1A2,2,0,0,0,534.62,330.93Zm-28.38,2.85a2,2,0,0,0-1.89-1.18,1.25,1.25,0,0,1-.73-.17l-.31.68a1.91,1.91,0,0,0,1,.3,1.47,1.47,0,0,1,1.32.65,1.77,1.77,0,0,1,.31.79,6.61,6.61,0,0,0,.22,1,8.54,8.54,0,0,0,.17-1A2.06,2.06,0,0,0,506.24,333.78Zm45-7.71a1.53,1.53,0,0,1-1.41.43,2.37,2.37,0,0,1-.77-.4c-.29-.17-.54-.36-.82-.53a9.57,9.57,0,0,0,.55.81,2,2,0,0,0,.83.69,2,2,0,0,0,2.18-.44,1.55,1.55,0,0,1,.91-.47c.07-.23.14-.47.2-.7A2,2,0,0,0,551.19,326.07Zm-32.41-5.47a1.82,1.82,0,0,0-1.07.11,2,2,0,0,0-1.24,1.85,1.47,1.47,0,0,1-.65,1.32,1.91,1.91,0,0,1-.78.28c-.33.09-.65.14-1,.23.33.08.65.12,1,.17a2,2,0,0,0,1.07-.13,2,2,0,0,0,1.17-1.89,1.48,1.48,0,0,1,.69-1.28,1.76,1.76,0,0,1,.81-.26,6.87,6.87,0,0,0,1-.24C519.43,320.7,519.11,320.67,518.78,320.6Zm24.46,21.22a2,2,0,0,0-2.3,2,1.53,1.53,0,0,1-.66,1.33,1.9,1.9,0,0,1-.8.29c-.31.08-.62.13-1,.21a7.34,7.34,0,0,0,1,.17,1.86,1.86,0,0,0,1.08-.13,2,2,0,0,0,1.16-1.87,1.49,1.49,0,0,1,.72-1.29,1.85,1.85,0,0,1,.8-.28,6.35,6.35,0,0,0,1-.22C543.89,341.92,543.58,341.89,543.24,341.82Zm5.19-47.15a2.1,2.1,0,0,0-1.07.1,2,2,0,0,0-1.23,1.86,1.55,1.55,0,0,1-.66,1.33,1.9,1.9,0,0,1-.8.28c-.31.08-.62.13-1,.22.34.08.66.12,1,.17a1.78,1.78,0,0,0,1.08-.14,1.94,1.94,0,0,0,1.16-1.86,1.48,1.48,0,0,1,.72-1.29,1.73,1.73,0,0,1,.8-.28c.33-.07.64-.12,1-.22C549.08,294.77,548.77,294.73,548.43,294.67Z" style="fill:#fff"></path><path d="M510.29,337.06c2-4.14,9.67-21.35,11.07-25.19.1-.26,0-.39-.18-.12-6.36,12.24-9.28,21.07-11,25.22C510.08,337.07,510.24,337.16,510.29,337.06Z" style="fill:#263238"></path><path d="M557.31,294.21c-.26,20.2-6.28,45.16-15.46,52-1.57,1.16-4.06,1.46-7.05,1.18L552,284.87C554.93,283.82,557.42,286.2,557.31,294.21Z" style="fill:#000102;opacity:0.1"></path><path d="M617.51,355.83,552,364.78c.4,1.22-7.61-39.36-3.3-74.51.89-7.28,12.49-9.4,18.12-6.82C591.48,294.76,617.41,355.26,617.51,355.83Z" style="fill:#37474f"></path><path d="M562.05,342.57a9.84,9.84,0,0,0,.56.82,1.88,1.88,0,0,0,.86.66,2,2,0,0,0,2.14-.51,1.56,1.56,0,0,1,1.42-.42,2.84,2.84,0,0,1,.76.38,7.4,7.4,0,0,0,.84.53c-.19-.29-.39-.54-.57-.79a2.12,2.12,0,0,0-.83-.7A2,2,0,0,0,565,343a1.54,1.54,0,0,1-1.38.47,1.91,1.91,0,0,1-.79-.35A8.27,8.27,0,0,0,562.05,342.57ZM604.12,345c.17.29.4.54.58.82a2.05,2.05,0,0,0,.85.66,2,2,0,0,0,2.16-.52,1.5,1.5,0,0,1,1.39-.41,1.73,1.73,0,0,1,.76.37,6.72,6.72,0,0,0,.85.53,7.6,7.6,0,0,0-.59-.81,2.16,2.16,0,0,0-.83-.69,2,2,0,0,0-2.16.46,1.48,1.48,0,0,1-1.4.45,1.38,1.38,0,0,1-.76-.35C604.68,345.33,604.42,345.14,604.12,345Zm-20-30.56c.18.29.37.55.56.82a2,2,0,0,0,3,.15,1.47,1.47,0,0,1,1.41-.39,1.59,1.59,0,0,1,.76.37c.28.17.55.36.85.53-.17-.29-.4-.55-.58-.81a1.9,1.9,0,0,0-.83-.69,2,2,0,0,0-2.18.44,1.49,1.49,0,0,1-1.39.47A1.71,1.71,0,0,1,585,315C584.68,314.79,584.41,314.6,584.11,314.43Zm-24.24-26.6c.18.29.37.54.57.81a1.9,1.9,0,0,0,.87.67,2,2,0,0,0,2.14-.51,1.45,1.45,0,0,1,1.41-.4,1.72,1.72,0,0,1,.75.38c.29.17.55.36.85.52-.16-.28-.39-.54-.57-.81a2.1,2.1,0,0,0-.83-.69,2,2,0,0,0-2.19.44,1.45,1.45,0,0,1-1.38.47,1.74,1.74,0,0,1-.77-.36C560.44,288.19,560.18,288,559.87,287.83Zm-2,19.75a2,2,0,0,0,1.85,1.24,1.49,1.49,0,0,1,1.32.65,2,2,0,0,1,.3.78,7.23,7.23,0,0,0,.23,1c.06-.32.1-.64.14-1a1.59,1.59,0,0,0-.12-1.06A2,2,0,0,0,559.7,308a1.51,1.51,0,0,1-1.29-.69,2.08,2.08,0,0,1-.27-.83,8.89,8.89,0,0,0-.23-1c-.07.34-.1.65-.17,1A2.26,2.26,0,0,0,557.85,307.58Zm29.54,23.18a2,2,0,0,0,1.85,1.23,1.47,1.47,0,0,1,1.32.66,1.68,1.68,0,0,1,.3.78,6.61,6.61,0,0,0,.22,1,8.54,8.54,0,0,0,.17-1,2,2,0,0,0-.13-1.06,2,2,0,0,0-1.89-1.18,1.46,1.46,0,0,1-1.28-.69,1.94,1.94,0,0,1-.26-.8c-.09-.34-.14-.66-.23-1a7.7,7.7,0,0,0-.16,1A1.87,1.87,0,0,0,587.39,330.76Zm-39.2-5.19a9.57,9.57,0,0,0,.55.81,2,2,0,0,0,.83.69,2,2,0,0,0,2.19-.44,1.59,1.59,0,0,1,1.41-.47,2,2,0,0,1,.76.36c.27.17.54.36.84.52-.18-.28-.39-.54-.58-.81a1.75,1.75,0,0,0-.86-.66,2,2,0,0,0-2.14.5,1.52,1.52,0,0,1-1.41.43,2.48,2.48,0,0,1-.77-.4C548.73,325.93,548.47,325.74,548.19,325.57Zm20.26.82a8.92,8.92,0,0,0,1,.17,1.82,1.82,0,0,0,1.07-.13,2,2,0,0,0,1.17-1.89,1.53,1.53,0,0,1,.69-1.28,1.94,1.94,0,0,1,.81-.26,7,7,0,0,0,1-.23l-1-.16a1.91,1.91,0,0,0-1.07.1,2,2,0,0,0-1.23,1.86,1.51,1.51,0,0,1-.65,1.32,2,2,0,0,1-.79.28C569.1,326.25,568.78,326.3,568.45,326.39Zm14.45,25.14c.34.08.66.12,1,.17a1.78,1.78,0,0,0,1.08-.14,1.94,1.94,0,0,0,1.16-1.86,1.48,1.48,0,0,1,.72-1.29,1.73,1.73,0,0,1,.8-.28c.33-.07.64-.12,1-.22-.32-.07-.63-.11-1-.17a2.1,2.1,0,0,0-1.07.1,2,2,0,0,0-1.23,1.86,1.55,1.55,0,0,1-.66,1.33,1.9,1.9,0,0,1-.8.28C583.55,351.39,583.24,351.44,582.9,351.53Zm-21.27,11.54c.35.07.67.1,1,.18a2.35,2.35,0,0,0,.53,0,1.41,1.41,0,0,0,.55-.16,1.94,1.94,0,0,0,1.16-1.87,1.48,1.48,0,0,1,.72-1.28,2.16,2.16,0,0,1,.79-.28,6.77,6.77,0,0,0,1-.22c-.33-.07-.66-.1-1-.16a2.06,2.06,0,0,0-1.06.1,2,2,0,0,0-1.23,1.84,1.51,1.51,0,0,1-.66,1.33,1.78,1.78,0,0,1-.8.3C562.29,362.92,562,363,561.63,363.07Zm11.43-60.51c.33.07.64.1,1,.17a1.88,1.88,0,0,0,1.06-.14,2,2,0,0,0,1.18-1.88,1.49,1.49,0,0,1,.69-1.28,2,2,0,0,1,.8-.28c.34-.08.65-.12,1-.21a9.09,9.09,0,0,0-1-.17,2,2,0,0,0-1.06.09,2,2,0,0,0-1.23,1.85,1.48,1.48,0,0,1-.66,1.33,1.93,1.93,0,0,1-.78.3A6.21,6.21,0,0,0,573.06,302.56Z" style="fill:#fff"></path><path d="M575.72,291.16c16.86,19.38,36.89,58.28,32.18,65.8-5.24,8.37-28.49-17.88-28.3-19.37.14-1.12-7.22-25-12.85-42.37S571.55,286.37,575.72,291.16Z" style="fill:#eb9481"></path><path d="M579.43,337.61c-.61-2.54-10.69-34-13.51-44s.54-12.75,9.78-3.23,28.46,39.11,32.37,55.2c3.77,15.51-3.66,16.52-13.55,8.86C586.41,348.2,579.43,337.61,579.43,337.61Z" style="fill:#37474f"></path><path d="M573.06,302.56c.33.07.64.1,1,.17a1.88,1.88,0,0,0,1.06-.14,2,2,0,0,0,1.18-1.88,1.49,1.49,0,0,1,.69-1.28,2,2,0,0,1,.8-.28c.34-.08.65-.12,1-.21a9.09,9.09,0,0,0-1-.17,2,2,0,0,0-1.06.09,2,2,0,0,0-1.23,1.85,1.48,1.48,0,0,1-.66,1.33,1.93,1.93,0,0,1-.78.3A6.21,6.21,0,0,0,573.06,302.56Zm14.3,45.15.36.4a6.45,6.45,0,0,0,.87-.2c-.32-.07-.63-.11-1-.17A1.86,1.86,0,0,0,587.36,347.71Zm0-16.95a2,2,0,0,0,1.85,1.23,1.47,1.47,0,0,1,1.32.66,1.68,1.68,0,0,1,.3.78,6.61,6.61,0,0,0,.22,1,8.54,8.54,0,0,0,.17-1,2,2,0,0,0-.13-1.06,2,2,0,0,0-1.89-1.18,1.46,1.46,0,0,1-1.28-.69,1.94,1.94,0,0,1-.26-.8c-.09-.34-.14-.66-.23-1a7.7,7.7,0,0,0-.16,1A1.87,1.87,0,0,0,587.39,330.76ZM565,288.43a1.6,1.6,0,0,1,.65.35c.29.17.55.36.85.52-.16-.28-.39-.54-.57-.81a2.1,2.1,0,0,0-.83-.69l-.11,0A4.92,4.92,0,0,0,565,288.43Zm19.15,26c.18.29.37.55.56.82a2,2,0,0,0,3,.15,1.47,1.47,0,0,1,1.41-.39,1.59,1.59,0,0,1,.76.37c.28.17.55.36.85.53-.17-.29-.4-.55-.58-.81a1.9,1.9,0,0,0-.83-.69,2,2,0,0,0-2.18.44,1.49,1.49,0,0,1-1.39.47A1.71,1.71,0,0,1,585,315C584.68,314.79,584.41,314.6,584.11,314.43Zm20,30.56c.17.29.4.54.58.82a2.05,2.05,0,0,0,.85.66,2,2,0,0,0,2.16-.52,1.05,1.05,0,0,1,.38-.27s0-.05,0-.07c-.05-.23-.11-.46-.17-.7a1.85,1.85,0,0,0-.77.49,1.48,1.48,0,0,1-1.4.45,1.38,1.38,0,0,1-.76-.35C604.68,345.33,604.42,345.14,604.12,345Z" style="fill:#fff"></path><path d="M580.71,341.68c-.86-3.17-1.78-6.33-2.7-9.49s-1.89-6.29-2.83-9.44l-2.93-9.42-1.5-4.69c-.51-1.56-1-3.13-1.55-4.68.43,1.58.89,3.16,1.33,4.75l1.38,4.73,2.82,9.45c1,3.14,1.94,6.28,2.93,9.41S579.66,338.57,580.71,341.68Z" style="fill:#263238"></path><path d="M571.3,311.3a18.65,18.65,0,0,0-1.12-2.34c-.21-.37-.43-.75-.66-1.11s-.47-.72-.71-1.08a12,12,0,0,0,1.06,2.37A16.15,16.15,0,0,0,571.3,311.3Z" style="fill:#263238"></path><path d="M607.87,356.92c-4.33,5.94-14.6,7.13-43.3,12.16-4,.7-17.3-26.49-13.09-27.45,5.29-1.21,26.1-4.77,27.65-4.84C592.25,336.22,610.81,352.89,607.87,356.92Z" style="fill:#eb9481"></path><path d="M561.26,341.29s-11-.84-18.2-1.05c-4-.12-10.93.29-13.93,1.56-4.48,1.89-22,12.67-19.48,17,2.28,3.9,16.16-7.27,16.16-7.27s-15,10-11.39,14.22S532,355.2,532,355.2s-15.19,10.66-10.78,14.38c3.33,2.82,16.76-9.78,16.76-9.78s-13,9.25-9.68,12.29c3.64,3.37,16.77-7.49,16.77-7.49,9.69,6.33,16.9,5.38,21.94,4.09C568.27,368.38,561.26,341.29,561.26,341.29Z" style="fill:#eb9481"></path><path d="M530.78,347.7c-1.81,1.11-3.64,2.23-5.34,3.5s-3.36,2.6-4.93,4a36.63,36.63,0,0,0-5.6,6.12c3.18-3.78,9.19-8.42,10.9-9.7s3.32-2.62,5-3.89C530.87,347.73,530.82,347.67,530.78,347.7Z" style="fill:#263238"></path><path d="M535.48,353.75c-2.24,1.52-4.52,2.95-6.7,4.58s-4.08,3.33-6.13,5.09c-.16.14,0,.18.13.05,2.12-1.68,4.21-3.06,6.34-4.72s4.21-3.38,6.4-4.95C535.56,353.78,535.52,353.73,535.48,353.75Z" style="fill:#263238"></path><path d="M540.45,358.22a60.57,60.57,0,0,0-9.71,7.78c-.15.14,0,.18.18,0,3.18-2.65,5.65-4.75,9.61-7.7C540.59,358.3,540.53,358.18,540.45,358.22Z" style="fill:#263238"></path><path d="M554.69,340.39l24.5,28.39s25.14-5.41,29-11.83c2.54-4.23-15.87-21.83-30.31-20.1Z" style="fill:#37474f"></path><path d="M582.11,364.19c.16.29.37.55.55.82a2,2,0,0,0,.87.66,2,2,0,0,0,2.14-.51,1.54,1.54,0,0,1,1.41-.42,2.7,2.7,0,0,1,.76.38,6.24,6.24,0,0,0,.85.52c-.19-.29-.39-.53-.58-.78a2,2,0,0,0-.83-.7,1.93,1.93,0,0,0-2.18.45,1.56,1.56,0,0,1-1.38.47,2,2,0,0,1-.79-.36A9.46,9.46,0,0,0,582.11,364.19Zm-20.06-21.62a9.84,9.84,0,0,0,.56.82,1.88,1.88,0,0,0,.86.66,2,2,0,0,0,2.14-.51,1.56,1.56,0,0,1,1.42-.42,2.84,2.84,0,0,1,.76.38,7.4,7.4,0,0,0,.84.53c-.19-.29-.39-.54-.57-.79a2.12,2.12,0,0,0-.83-.7A2,2,0,0,0,565,343a1.54,1.54,0,0,1-1.38.47,1.91,1.91,0,0,1-.79-.35A8.27,8.27,0,0,0,562.05,342.57Zm39,18.58a1.74,1.74,0,0,0,.42.63c.25-.11.5-.24.75-.36a1.55,1.55,0,0,1-.6-.54,1.7,1.7,0,0,1-.28-.81,7.47,7.47,0,0,0-.23-1c-.07.32-.1.63-.17,1A2.22,2.22,0,0,0,601,361.15Zm-18.14-9.62c.34.08.66.12,1,.17a1.78,1.78,0,0,0,1.08-.14,1.94,1.94,0,0,0,1.16-1.86,1.48,1.48,0,0,1,.72-1.29,1.73,1.73,0,0,1,.8-.28c.33-.07.64-.12,1-.22-.32-.07-.63-.11-1-.17a2.1,2.1,0,0,0-1.07.1,2,2,0,0,0-1.23,1.86,1.55,1.55,0,0,1-.66,1.33,1.9,1.9,0,0,1-.8.28C583.55,351.39,583.24,351.44,582.9,351.53Z" style="fill:#fff"></path><path d="M595,341.73a24.91,24.91,0,0,0-17.1-4.9c-.08,0-.08.12,0,.12,6.29-.05,14.71,3.41,17.06,4.88C595,341.87,595,341.77,595,341.73Z" style="fill:#263238"></path><path d="M586.14,364.25c-2.53-3.27-5.23-6.4-7.94-9.52s-5.41-6.25-8.2-9.3c-1.57-1.73-3.14-3.47-4.77-5.14,0,0-.13,0-.09.07,2.52,3.26,5.21,6.4,7.89,9.54s5.42,6.25,8.17,9.34q2.32,2.63,4.77,5.13C586.05,364.46,586.21,364.34,586.14,364.25Z" style="fill:#263238"></path><path d="M554.66,340a33.94,33.94,0,0,1,4.71-1c1.59-.27,3.18-.5,4.77-.73,3.17-.44,9.84-1.74,15.67-1.61.06,0-.27.31-.34.3-2.77-.2-22.75,3.36-24.39,3.45a2.55,2.55,0,0,1,.17.33c0,.08,0,.19-.13.13s-.35-.32-.54-.48A.23.23,0,0,1,554.66,340Z" style="fill:#263238"></path><path d="M586.22,303.75c7.41,10.09,28.07,41.44,21.92,53.34,5.06-11.13-15.65-42.77-21.92-53.34Z" style="fill:#263238"></path><path d="M588.1,304.9a9.06,9.06,0,0,1,2,4.7,22.84,22.84,0,0,1-2-4.7Z" style="fill:#263238"></path><path d="M554.12,293.89c3.17.57,9.49-3.44,11.49-8,.14-.32-.6-3.43-1.33-7.26-.42-2.32-.85-4.92-1.06-7.32,0-.49-14.72,5-14.72,5a38.48,38.48,0,0,1,2.28,9.08,5.38,5.38,0,0,1,0,1,1,1,0,0,0,0,.17C550.62,288.43,550.74,293.27,554.12,293.89Z" style="fill:#eb9481"></path><path d="M550.76,286.36v.17a10.48,10.48,0,0,0,1.55-.06c8.83-1,10.18-12.28,10.38-15.13-2.64.63-14.19,5-14.19,5a38.48,38.48,0,0,1,2.28,9.08A5.38,5.38,0,0,1,550.76,286.36Z" style="fill:#263238"></path><path d="M566,254c1.47,5.4-1.83,20.77-5.75,24.1-5.67,4.83-14.72,5-18.76-1.74-3.92-6.55.74-26.52,5.09-29.52C553,242.46,563.8,246.06,566,254Z" style="fill:#eb9481"></path><path d="M544.52,262s-.09,0-.1.08c-.14,1.05-.48,2.23-1.49,2.42,0,0,0,0,0,.06C544.11,264.56,544.55,263,544.52,262Z" style="fill:#263238"></path><path d="M543.77,260.72c-1.66-.41-2.36,2.94-.82,3.32S545.16,261.07,543.77,260.72Z" style="fill:#263238"></path><path d="M550.37,263.17s.07.07.06.11c-.24,1-.34,2.25.53,2.79a0,0,0,1,1,0,.05C549.83,265.73,550,264.11,550.37,263.17Z" style="fill:#263238"></path><path d="M551.52,262.27c1.69.21,1.16,3.58-.42,3.39S550.09,262.1,551.52,262.27Z" style="fill:#263238"></path><path d="M552.82,260.12a12.34,12.34,0,0,1-1.26-.63,2.27,2.27,0,0,1-1.15-.89.72.72,0,0,1,.23-.86,1.78,1.78,0,0,1,1.81.06,2.58,2.58,0,0,1,1.36,1.32A.77.77,0,0,1,552.82,260.12Z" style="fill:#263238"></path><path d="M542.88,258.29a13,13,0,0,0,1.4-.12,2.21,2.21,0,0,0,1.4-.4.71.71,0,0,0,.11-.87,1.78,1.78,0,0,0-1.7-.63,2.65,2.65,0,0,0-1.76.72A.77.77,0,0,0,542.88,258.29Z" style="fill:#263238"></path><path d="M549.88,272.78c-.27.23-.54.56-.93.57a2.82,2.82,0,0,1-1.12-.32,0,0,0,0,0-.05.05,1.44,1.44,0,0,0,1.32.64,1.13,1.13,0,0,0,.88-.89A.06.06,0,0,0,549.88,272.78Z" style="fill:#263238"></path><path d="M549.35,269.37a3.59,3.59,0,0,1-2.64,1.18,4.7,4.7,0,0,1-1.29-.16.84.84,0,0,1-.24-.07l-.22-.07a.26.26,0,0,1-.17-.27h0a.3.3,0,0,1,0-.1h0v-.09c.12-.81.4-2,.4-2-.32.1-1.93.52-1.83.1a53.91,53.91,0,0,1,3.2-10.53.1.1,0,0,1,.19.06c-.64,3.34-1.86,6.55-2.55,9.89A6.38,6.38,0,0,1,546,267c.11.06-.6,2.33-.62,2.7v0a5,5,0,0,0,3.88-.52C549.35,269.21,549.43,269.3,549.35,269.37Z" style="fill:#263238"></path><path d="M545.91,270.26a4.18,4.18,0,0,0,1.49,1.48,1.88,1.88,0,0,0,1.11.21c.84-.12,1-.86.88-1.51a4.79,4.79,0,0,0-.24-1A5.35,5.35,0,0,1,545.91,270.26Z" style="fill:#263238"></path><path d="M547.4,271.74a1.88,1.88,0,0,0,1.11.21c.84-.12,1-.86.88-1.51A1.91,1.91,0,0,0,547.4,271.74Z" style="fill:#ff9bbc"></path><path d="M563.54,267.25c-2.44-.24-2.22-5.86-2.22-5.86s-6.26,1-5.44-7.12c0,0-7.4,1.56-11.55-1.33-3.54-2.47-4.83-9.11-1.62-12.6,1.81-2,6.4-3.45,12.25,3.63,0,0,9.19-4.91,11.21,5.73,0,0,4.35,1,4.39,5.38C570.63,261.94,565.64,267.46,563.54,267.25Z" style="fill:#263238"></path><path d="M555.94,253.7a.07.07,0,0,1,.13.05c-.61,1.94-1.24,4.05.15,5.83a4.81,4.81,0,0,0,5.59,1.64c.11-.05.2.13.08.18a5.23,5.23,0,0,1-5.65-1.27C554.49,258.3,554.9,255.78,555.94,253.7Z" style="fill:#263238"></path><path d="M563.5,266c3.55-1.34,6.42-3.89,7.14-7.78a7.6,7.6,0,0,0-.76-5.44c-.92-1.48-2.46-2.16-3.8-3.15a0,0,0,0,1,0-.07c8.63,3.26,5.46,15-2.49,16.88A.23.23,0,0,1,563.5,266Z" style="fill:#263238"></path><path d="M541.58,240.28c4.31-4.85,11.25-.46,13.6,4.12,0,0,0,0,0,0-2.2-3.49-7.18-7.24-11.39-5.16-5.08,2.52-4.1,11.33,1.27,12.78.17,0,.1.32-.06.29C540,251.37,538.37,243.89,541.58,240.28Z" style="fill:#263238"></path><path d="M561.16,266.71s3.75-4.82,6-3.46-.79,8.47-3.5,9.32a2.72,2.72,0,0,1-3.56-1.64Z" style="fill:#eb9481"></path><path d="M566.2,265.27s0,.05,0,.07c-1.9.66-3,2.34-3.75,4.1a1.5,1.5,0,0,1,2.25-.3s0,.11-.05.1a1.66,1.66,0,0,0-1.86.49,7.85,7.85,0,0,0-1,1.44c-.09.16-.39.05-.32-.14l0,0C561.62,268.61,563.64,265.38,566.2,265.27Z" style="fill:#263238"></path><path d="M549.5,287a27,27,0,0,0,.27,2.81,12.16,12.16,0,0,0,.55,2.5,5.46,5.46,0,0,0,3.4,3.51,6.76,6.76,0,0,0,4.95-.42,14.77,14.77,0,0,0,4-3c.71-.7,1.39-1.42,2-2.17.32-.38.64-.76.94-1.16s.58-.8.91-1.18c0,0,.1,0,.08,0-.65.9-2.59,3.77-3.23,4.46a15,15,0,0,1-4,3.4,7.54,7.54,0,0,1-5.29.72,5.59,5.59,0,0,1-3.87-3.34,9.39,9.39,0,0,1-.6-2.92c-.08-1.08-.1-2.17-.08-3.24C549.48,286.93,549.5,286.94,549.5,287Z" style="fill:#263238"></path></g><g id="freepik--character-1--inject-243"><path d="M245.56,429c-2.32.75-68.37.17-70.87-1.44-1-.61-1.43-10.23-1.68-21.88,0-2.51-5-43-5-43l44.16.26,3.47,43s25.19,11.54,27.75,13.6S247.87,428.2,245.56,429Z" style="fill:#f7a9a0"></path><path d="M245.56,429c-2.31.75-68.36.17-70.87-1.45-.72-.46-1.17-6.09-1.46-13.87,8.54,2,56.56,5.9,62.08,5.24,5.34-.64-7-7-9.25-8.12,7.24,3.41,15.84,7.56,17.29,8.73C245.88,421.54,247.88,428.2,245.56,429Z" style="fill:#263238"></path><path d="M122,183.92s-11.55,16.77-5.2,35C127.62,250,155.17,285,156,289c2,9.43,12.62,106.18,12.62,106.18l49.34-.3s-8.12-82.06-16.5-109.16c-4.57-14.8-30.7-55.36-42-75.16-1-1.77,1.37-9.41,1.37-9.41Z" style="fill:#37474f"></path><path d="M213,386.24c-7.66-.15-30.86-.79-41.07,0-.08,0-.07.13,0,.14,3.51.55,33.41.18,41.07,0A.11.11,0,0,0,213,386.24Z" style="fill:#263238"></path><path d="M113.75,206.81c3.29,5.31,6.78,10.51,10.15,15.78s6.73,10.55,10,15.85q9.94,15.9,19.4,32.09a97.54,97.54,0,0,1,7.81,15.64,95.63,95.63,0,0,1,4.29,16.8c1,5.74,1.59,11.53,2.17,17.32.62,6.16,1.22,12.32,1.84,18.49l3.75,37.83c.15,1.54.3,3.09.44,4.64,0,.22-.39.27-.41,0-1.42-12.54-2.57-25.1-3.84-37.65q-.94-9.36-1.9-18.74c-.59-5.81-1.15-11.62-2-17.4A114.19,114.19,0,0,0,162,290.65a80.79,80.79,0,0,0-7.17-16.41c-6-10.74-12.47-21.3-18.88-31.84s-13-21.22-19.78-31.66c-.84-1.29-1.68-2.58-2.55-3.84C113.51,206.8,113.69,206.71,113.75,206.81Z" style="fill:#263238"></path><path d="M125.27,429.27c-2.43-.18-64.92-26.4-66.64-28.83a.85.85,0,0,1-.09-.47c0-2.16,29.92-56.4,29.92-56.4l40.85,16.82-23.16,36.25s19,20.15,20.62,23S127.7,429.44,125.27,429.27Z" style="fill:#f7a9a0"></path><path d="M126.77,419.66c1.58,2.87.93,9.78-1.49,9.61s-64.93-26.4-66.65-28.83a.9.9,0,0,1-.09-.47c0-.7,3.21-7,7.51-15.08,8.87-16.72,22.41-41.32,22.41-41.32l40.85,16.82-23.16,36.25s5.25,5.56,10.46,11.25l0,0C121.34,413.06,126,418.3,126.77,419.66Z" style="fill:#f7a9a0"></path><path d="M125.28,429.27c-2.43-.18-64.93-26.4-66.65-28.83a.9.9,0,0,1-.09-.47c0-.7,3.21-7,7.51-15.08,10.79,11.35,53.36,32,54.76,31.46s-3.82-7.92-4.18-8.44c4.71,5.15,9.38,10.39,10.14,11.75C128.35,422.53,127.7,429.44,125.28,429.27Z" style="fill:#263238"></path><path d="M112.18,391,69.81,370.88s54.65-82.11,55.15-88.34c.44-5.52-24-53.89-24.81-67.91-.88-15.13,6.55-26.74,14.63-33.9l46.09,20.45s-4,8.22-12,12.58c0,0,23.63,55.86,22,72.92S112.18,391,112.18,391Z" style="fill:#37474f"></path><path d="M114.53,381.24c-5.87-3-4.14-2.23-10-5.16-2.9-1.43-21.92-10.84-24.87-11.65a.07.07,0,0,0-.06.13c2.47,1.8,21.67,10.84,24.59,12.21,6,2.81,4.29,1.93,10.3,4.66C114.55,381.48,114.64,381.3,114.53,381.24Z" style="fill:#263238"></path><path d="M155.77,214.22a89.1,89.1,0,0,0-15,2.36.15.15,0,1,0,.05.3c5-.64,10.08-1.17,15-2.08A.29.29,0,1,0,155.77,214.22Z" style="fill:#263238"></path><path d="M150.52,211.41a20.34,20.34,0,0,0-1.6,2.32,5.71,5.71,0,0,0-.95,2c0,.14.16.2.27.13a7.86,7.86,0,0,0,1.49-1.8c.52-.71,1.05-1.41,1.55-2.13C151.61,211.46,150.88,211,150.52,211.41Z" style="fill:#263238"></path><path d="M160.45,198.06c0-.08-.13-.15-.16-.07a66.24,66.24,0,0,1-3.25,7.33c-.56,1.12-4.06,7.11-6.29,5.8-.37-.22-.45-.62-.33-1.15a7.59,7.59,0,0,1,1.05-1.85c.77-1.24,1.48-2.5,2.13-3.81a33,33,0,0,0,2.72-7.58c0-.09-.13-.13-.16,0a63.26,63.26,0,0,1-4.62,10.17c-.93,1.55-2.86,3.7-.87,4.69s5-2.7,5.65-3.76A34.44,34.44,0,0,0,160.45,198.06Z" style="fill:#263238"></path><path d="M149.62,215.58c1.64,3.59,3.08,7.17,4.61,10.75s2.9,7,4.25,10.58c2.74,7.18,5.18,14.49,7.31,21.87q1.59,5.48,2.9,11a80,80,0,0,1,2.05,11.27,29.49,29.49,0,0,1-1.09,11.25c-1.12,3.73-7.43,16.2-9.16,19.67-1.06,2.13-1.41,1.84-.9.76,1.45-3,10.12-21.49,9.95-29.3a58.34,58.34,0,0,0-1.61-11.15q-1.25-5.61-2.78-11.16c-2-7.28-4.43-14.42-6.92-21.55-1.39-4-2.89-7.95-4.3-11.93s-2.9-7.64-4.49-12A.1.1,0,0,1,149.62,215.58Z" style="fill:#263238"></path><path d="M114.88,203.35c.82-.29,2,.23,2.8.38a25.26,25.26,0,0,0,3.25.37,24.88,24.88,0,0,0,3.23-.07,6.91,6.91,0,0,0,3.1-.78,15.61,15.61,0,0,0,4-4.14,24.06,24.06,0,0,0,3.14-5.36c0-.12.21,0,.17.08-.36,1.09-.63,2.2-1.08,3.27a22.39,22.39,0,0,1-1.55,2.9,12.56,12.56,0,0,1-4.15,4.59c-1.92,1.07-4.38,1-6.51.82a23.79,23.79,0,0,1-3.65-.53c-.87-.19-2.33-.35-2.87-1.12A.27.27,0,0,1,114.88,203.35Z" style="fill:#263238"></path><path d="M82.47,363.25Q94,346.24,105.15,329t22-34.88c1.72-2.8,3.71-5.59,4.83-8.69,1.23-3.38.6-6.68-.43-10a168.59,168.59,0,0,0-6.84-17.92c-2.58-5.88-5.36-11.66-8.1-17.46s-5.6-11.52-7.64-17.56c-2-5.77-2.64-11.73-1-17.66s5-11.15,8.53-16.06c.93-1.3,1.88-2.58,2.81-3.87.07-.1.22,0,.15.12-3.89,5.11-7.68,10.53-10,16.56a28.76,28.76,0,0,0-2,9.32,30.47,30.47,0,0,0,1.37,9.58c1.79,6,4.65,11.76,7.32,17.44s5.52,11.58,8.15,17.43a185.33,185.33,0,0,1,7.11,18c.9,2.74,1.9,5.6,1.8,8.51-.11,3.19-1.67,6.05-3.28,8.72-7,11.64-14.29,23.12-21.66,34.54S93.28,347.9,85.63,359.19q-1.44,2.15-2.9,4.27C82.61,363.64,82.36,363.42,82.47,363.25Z" style="fill:#263238"></path><path d="M156.28,142.73c-1.87,10.89-3.62,22.14-3.8,33.2-.14,8.63,2.63,16.06,11.25,19.18,8,2.89,19.72,4.09,27.3-.55,3.53-2.17,5.07-5.63,5.32-9.67.35-5.62-.54-36.71-.76-46.4-.13-5.9-.22-11.88-1.4-17.71-2.46-12.22-8.3-12.79-9.08-13.12-.65-.53-4.89-3-11.49-1.75a12.49,12.49,0,0,0-8.34,5.86C159.61,120.69,158.05,132.52,156.28,142.73Z" style="fill:#263238"></path><path d="M186.74,109.5c6.63,4.08,7.42,11.93,8.32,19,1.26,9.82,2.35,19.66,3,29.55.3,4.75.49,9.51.53,14.27,0,4.56.37,9.45-.46,14-1.36,7.45-8.62,10.07-15.4,10.37a.26.26,0,0,1,0-.52c3.88-.31,7.87-.92,11-3.4,4-3.19,4.16-7.94,4.27-12.67.2-8.06-.07-16.12-.62-24.16s-1.4-16.08-2.37-24.09c-.92-7.62-1.08-17.54-8.26-22.19C186.62,109.57,186.67,109.45,186.74,109.5Z" style="fill:#263238"></path><path d="M161.13,119.41c2-5.58,5.62-10.83,11.85-11.8,0,0,0,0,0,0-8.09,1.59-11,9.89-12.84,16.9q-2.94,11.06-5,22.3c-1.37,7.21-2.58,14.5-3.28,21.8-.76,7.89-.19,15.42,3.71,22.44a.13.13,0,0,1-.22.15c-4-5.78-4.65-13.18-4.23-20A204.67,204.67,0,0,1,155,144.48C156.6,136.12,158.26,127.45,161.13,119.41Z" style="fill:#263238"></path><path d="M159.51,150.55c-1.54,12.46.72,41.63,5,47.7,3.24,4.63,23.15,11.87,31.67,13.78,3.64.82,8.91-20.89,6.25-21.84-8.24-2.94-21.41-8.4-23.62-9.77-1.55-1-4.07-10.76-10.24-29.48C165.1,140.56,160.38,143.54,159.51,150.55Z" style="fill:#f7a9a0"></path><path d="M209.82,213.59c-1.46,0-1.45.81.64,2.36s11.68,5.91,9.87,9.13-15.24-3.14-18.52-6a69.43,69.43,0,0,1-7.59-8.61C197.08,211.2,204.19,212.27,209.82,213.59Z" style="fill:#f7a9a0"></path><path d="M201.74,190.11c8,2.3,18.07,4.68,24.53,11.49a4.64,4.64,0,0,1,1.32,2.73c2.95,3,2.42,5.3,2.42,5.3,1.89,3.63,1,5.9,1,5.9s3.42,3.56,1.61,6c-2,2.72-6.43-2.81-10.71-4.37-9.82-3.58-24.78-5.91-27.71-6.66Z" style="fill:#f7a9a0"></path><path d="M214.27,206.17a67.35,67.35,0,0,1,8.42,3.62,66.14,66.14,0,0,1,8.22,5.75.08.08,0,1,0,.11-.12,35.49,35.49,0,0,0-16.7-9.38C214.17,206,214.13,206.12,214.27,206.17Z" style="fill:#263238"></path><path d="M215.57,199.93c2.73,1.24,7.51,3.44,14.37,9.77,0,0,.06,0,0,0a31.93,31.93,0,0,0-14.35-9.86C215.45,199.74,215.39,199.85,215.57,199.93Z" style="fill:#263238"></path><path d="M216.33,196.59a50.12,50.12,0,0,1,11.23,7.75s.07,0,0,0c-4.22-4.42-6.26-5.54-11.22-7.88C216.21,196.34,216.15,196.5,216.33,196.59Z" style="fill:#263238"></path><path d="M192.25,213.52,200,187.81s-18.37-7.17-20.91-8.41c-1.07-.53-7.58-21.6-10.87-30.7-2.16-6-8.07-8.72-9.64,3.48-.92,7.14-.32,41.45,4.52,46.91C167,203.44,192.25,213.52,192.25,213.52Z" style="fill:#0BBEB2"></path><path d="M187.94,210.36c.26-1.92,2.66-9.57,3.27-11.47s3.35-9.43,4-11.38c0-.11.2-.09.17,0-.61,1.94-2.75,9.7-3.35,11.6s-3.08,9.51-4,11.26A.05.05,0,0,1,187.94,210.36Z" style="fill:#263238"></path><path d="M183.36,209.8c-7.68-3.32-17.93-8.07-20.26-10.71-4.84-5.46-5.44-39.77-4.52-46.92,1.32-10.32,5.76-9.95,8.41-5.95Z" style="fill:#020100;opacity:0.1"></path><path d="M160.87,201.18l3.88-19.6s6.87-2.43,6.79-11.34c0-4.1-2-20.12-6.6-26.46-4.34-5.93-11.31-4.49-15.5-2.42-8.21,4-19.87,15.38-34.66,39.37Z" style="fill:#0BBEB2"></path><path d="M153.54,174.88a29.84,29.84,0,0,1,5.45,2.79c.86.58,1.68,1.22,2.5,1.88.41.33.82.64,1.24.95a4.55,4.55,0,0,0,1.39.77s0,.11,0,.1a8,8,0,0,1-1.43-.39,9,9,0,0,1-1.28-.71c-.87-.58-1.72-1.21-2.59-1.8a62.78,62.78,0,0,0-5.34-3.37C153.37,175.05,153.45,174.84,153.54,174.88Z" style="fill:#263238"></path><path d="M148.13,176.14A32.57,32.57,0,0,1,153,177a22.67,22.67,0,0,1,2.36.81l1.1.47c.4.18.78.44,1.18.62,0,0,0,.11,0,.1-.39-.15-.81-.2-1.2-.32l-1.2-.34-2.39-.69c-1.59-.48-3.18-.93-4.79-1.33C148,176.31,148,176.13,148.13,176.14Z" style="fill:#263238"></path><path d="M145.4,148.48c-4.26,15.93-7.22,45.84-4.84,51.23,2.11,4.76,21.07,13.28,29.79,16.35,3.26,1.15,10.86-24.42,7.35-25.58-4.22-1.4-16.52-5.95-16.92-7s-2.55-21.46-5.13-34.28C153.31,137.52,147,142.46,145.4,148.48Z" style="fill:#f7a9a0"></path><path d="M189.33,193.37c7.51,3,9,4.94,16.65,4.12,5-.54,7.55,2.45,3.17,5.38-7.17,4.8-17.66,2.95-21.12,1.25Z" style="fill:#f7a9a0"></path><path d="M171.68,240.87,186.26,223a3.59,3.59,0,0,1,5.7,0h0a5.64,5.64,0,0,1,1.23,4,11.32,11.32,0,0,0,2.57,8.07c3.37,3.91,8.69,3.89,11.9,0a11.44,11.44,0,0,0-.27-14.18,7.8,7.8,0,0,0-6.84-2.87,3.77,3.77,0,0,1-3.38-1.35h0a5.47,5.47,0,0,1-.13-6.79l11.45-17.69,3.13-.14,15.26,17.72a3.58,3.58,0,0,0,5.7,0h0a5.46,5.46,0,0,0,1.07-4,11.11,11.11,0,0,1,2.27-8.09c3.22-3.93,8.54-4,11.9-.05a11.44,11.44,0,0,1,.26,14.19,7.53,7.53,0,0,1-6.72,2.9,3.7,3.7,0,0,0-3.33,1.38h0a5.49,5.49,0,0,0,.13,6.8l15.25,17.72-14.58,17.83a3.59,3.59,0,0,1-5.7,0h0a5.59,5.59,0,0,1-1.23-4,11.34,11.34,0,0,0-2.57-8.07c-3.37-3.91-8.69-3.89-11.9,0a11.44,11.44,0,0,0,.27,14.18,7.77,7.77,0,0,0,6.84,2.87,3.82,3.82,0,0,1,3.38,1.35h0a5.49,5.49,0,0,1,.13,6.8l-14.58,17.82-3.14.14L198.21,271.7a3.59,3.59,0,0,0-5.7,0h0a5.46,5.46,0,0,0-1.07,4,11.08,11.08,0,0,1-2.27,8.09c-3.22,3.93-8.54,3.95-11.9.05a11.42,11.42,0,0,1-.26-14.18,7.5,7.5,0,0,1,6.72-2.91,3.71,3.71,0,0,0,3.33-1.38h0a5.47,5.47,0,0,0-.13-6.79Z" style="fill:#0BBEB2"></path><path d="M171.68,240.87,186.26,223a3.59,3.59,0,0,1,5.7,0h0a5.64,5.64,0,0,1,1.23,4,11.32,11.32,0,0,0,2.57,8.07c3.37,3.91,8.69,3.89,11.9,0a11.44,11.44,0,0,0-.27-14.18,7.8,7.8,0,0,0-6.84-2.87,3.77,3.77,0,0,1-3.38-1.35h0a5.47,5.47,0,0,1-.13-6.79l11.45-17.69,3.13-.14,15.26,17.72a3.58,3.58,0,0,0,5.7,0h0a5.46,5.46,0,0,0,1.07-4,11.11,11.11,0,0,1,2.27-8.09c3.22-3.93,8.54-4,11.9-.05a11.44,11.44,0,0,1,.26,14.19,7.53,7.53,0,0,1-6.72,2.9,3.7,3.7,0,0,0-3.33,1.38h0a5.49,5.49,0,0,0,.13,6.8l15.25,17.72-14.58,17.83a3.59,3.59,0,0,1-5.7,0h0a5.59,5.59,0,0,1-1.23-4,11.34,11.34,0,0,0-2.57-8.07c-3.37-3.91-8.69-3.89-11.9,0a11.44,11.44,0,0,0,.27,14.18,7.77,7.77,0,0,0,6.84,2.87,3.82,3.82,0,0,1,3.38,1.35h0a5.49,5.49,0,0,1,.13,6.8l-14.58,17.82-3.14.14L198.21,271.7a3.59,3.59,0,0,0-5.7,0h0a5.46,5.46,0,0,0-1.07,4,11.08,11.08,0,0,1-2.27,8.09c-3.22,3.93-8.54,3.95-11.9.05a11.42,11.42,0,0,1-.26-14.18,7.5,7.5,0,0,1,6.72-2.91,3.71,3.71,0,0,0,3.33-1.38h0a5.47,5.47,0,0,0-.13-6.79Z" style="fill:#020100;opacity:0.1"></path><path d="M168.54,241l14.59-17.83a3.59,3.59,0,0,1,5.7,0h0a5.59,5.59,0,0,1,1.22,4,11.28,11.28,0,0,0,2.58,8.07c3.36,3.91,8.69,3.89,11.9,0a11.42,11.42,0,0,0-.28-14.18,7.78,7.78,0,0,0-6.83-2.87A3.82,3.82,0,0,1,194,216.8h0a5.49,5.49,0,0,1-.12-6.8l14.58-17.82,15.25,17.72a3.6,3.6,0,0,0,5.71,0h0a5.46,5.46,0,0,0,1.07-4,11.06,11.06,0,0,1,2.27-8.09c3.21-3.93,8.54-3.95,11.9,0a11.42,11.42,0,0,1,.26,14.18,7.52,7.52,0,0,1-6.73,2.91,3.71,3.71,0,0,0-3.33,1.38h0A5.49,5.49,0,0,0,235,223l15.26,17.72-14.59,17.83a3.59,3.59,0,0,1-5.7,0h0a5.59,5.59,0,0,1-1.22-4,11.3,11.3,0,0,0-2.58-8.07c-3.36-3.91-8.69-3.89-11.9,0a11.42,11.42,0,0,0,.28,14.18,7.78,7.78,0,0,0,6.83,2.87,3.84,3.84,0,0,1,3.39,1.35h0a5.49,5.49,0,0,1,.12,6.8l-14.58,17.82-15.25-17.72a3.6,3.6,0,0,0-5.71,0h0a5.46,5.46,0,0,0-1.07,4A11,11,0,0,1,186,284c-3.21,3.93-8.54,3.95-11.9.05a11.42,11.42,0,0,1-.26-14.18,7.52,7.52,0,0,1,6.73-2.91,3.71,3.71,0,0,0,3.33-1.38h0a5.47,5.47,0,0,0-.13-6.79Z" style="fill:#0BBEB2"></path><path d="M167.05,189.49s10.29.13,18.6,2.55c5.75,1.68,17.85,6.71,22.26,24,1.05,4.11-.37,10.71-4.51,4.62-3-4.32-3.51-8-5.68-10.16,0,0-2.81,8.18-7,9.07a80,80,0,0,1-11,1.55,17,17,0,0,1-.48-2s-4,.46-8.91-3Z" style="fill:#f7a9a0"></path><path d="M190.88,194.52c1.69,2.64,5.19,8.3,6.44,13.92,1.38,6.25,2.37,18.65-2.25,19.63-3.39.72-4.18-4-4.18-4s-.68,5.22-3.88,5.19c-2.92,0-3.31-3.69-3.31-3.69s-1,3.09-3.76,2.53c-3.38-.68-.83-7.05-3.66-10.69C175.65,216.6,190.88,194.52,190.88,194.52Z" style="fill:#f7a9a0"></path><path d="M190.47,208.8A25.46,25.46,0,0,1,191,224c0,.13-.16.17-.15,0a62.78,62.78,0,0,0-.43-15.21S190.46,208.77,190.47,208.8Z" style="fill:#263238"></path><path d="M184.21,210.39c.78,2.47,1.58,9.66-.4,15.19,0,.12-.16.15-.14,0a67.5,67.5,0,0,0,.48-15.21S184.2,210.36,184.21,210.39Z" style="fill:#263238"></path><path d="M190.67,193.94c3.73,1.48,7.55,3.38,11.6,3.5,1.36-.07,2.72-.2,4.1-.24,1.61.05,3.85-.13,4.94,1.42a2.75,2.75,0,0,1-.61,3.06,12.59,12.59,0,0,1-7.28,3.62,13.23,13.23,0,0,0,7-3.86c3.3-5-5.5-3.58-8.11-3.54-4.17-.15-7.94-2.21-11.62-4Z" style="fill:#263238"></path><path d="M201.41,202.45c3.73,5.15,7.38,11.24,7.15,17.83-.11,1.76-1.38,4.13-3.46,2.84a9.68,9.68,0,0,1-3-4,48,48,0,0,0-4.63-8.42l.58-.25c.58,5.21,1.48,10.94-.73,15.87a3.22,3.22,0,0,1-1.66,1.53c1.43-.66,1.93-2.32,2.23-3.74.82-4.91.06-9.94-.68-14.81l.77,1c2.58,3.22,3.84,7.12,5.95,10.55,1.67,2.56,3.55,2.67,4-.67a13.85,13.85,0,0,0-.43-4.69,41.92,41.92,0,0,0-6.06-13.06Z" style="fill:#263238"></path><path d="M166.2,218.87l11.05-29.38L161.63,183c-1.41-9.88-4.24-29.65-6.24-36.34-2.35-7.85-8-6.73-10.41,1.25-5.6,18.25-7.49,49.12-5.53,53.47C142.26,207.56,166.2,218.87,166.2,218.87Z" style="fill:#0BBEB2"></path><path d="M162.78,213.44c.34-1.94,3.06-9.59,3.76-11.49s3.76-9.43,4.49-11.38c0-.1.2-.08.16,0-.68,1.94-3.16,9.72-3.84,11.62s-3.49,9.51-4.47,11.25C162.84,213.53,162.77,213.5,162.78,213.44Z" style="fill:#263238"></path><path d="M156.14,213.7c-2.41-1.32-4.77-2.71-7.1-4.17-3.4-2.29-7.19-4.33-9.62-7.75-1.57-3.92-1-8.24-1-12.34.24-5.5.89-10.95,1.59-16.39s1.63-10.86,2.69-16.24c-1.42,10.86-2.89,21.74-3.59,32.66-.08,4-.65,8.3.7,12.09a12.44,12.44,0,0,0,2.73,2.94,104.88,104.88,0,0,0,13.59,9.2Z" style="fill:#263238"></path><path d="M141.92,161.44a6.38,6.38,0,0,1-.06-3.1,21.37,21.37,0,0,1,.06,3.1Z" style="fill:#263238"></path><path d="M158.25,161.77c1.46,6.84,2,13.84,3.45,20.68,0,.11.07.23.09.32s.07,0,.1.06c1.33.75,5.06,2.23,6.53,2.88,0,0,8.89,3.75,8.84,3.78l-.29.74.26-.75v0c-5.27-2-10.55-3.86-15.64-6.29-.24-.12-.31-.42-.37-.64-1.43-6.78-1.91-14-3-20.81Z" style="fill:#263238"></path><path d="M159.11,162.62a6.24,6.24,0,0,1-.3,3.09,21.41,21.41,0,0,1,.3-3.09Z" style="fill:#263238"></path><path d="M151,140.69s6.62,16.12,13,16.87c4.79.56,4.09-9.23,4.09-9.23S163.63,135.4,151,140.69Z" style="fill:#f7a9a0"></path><path d="M157.46,141.75c-.13,1,2,9.09,6.69,10.2,2.44.57,4.16-7.11,4.16-7.11l.35-.52L173.5,137l-7.13-9.62L165.31,126s-1.19,2.09-2.65,4.72l-.2.37-.25.43c-.22.38-.45.78-.66,1.18l-.5.93-.5,1A58,58,0,0,0,157.46,141.75Z" style="fill:#f7a9a0"></path><path d="M162.66,130.76a17.67,17.67,0,0,0,6,13.56L173.5,137l-7.13-9.62L165.31,126S164.12,128.13,162.66,130.76Z" style="fill:#263238"></path><path d="M189.83,129.82c-4.56,14.74-13.9,13.67-17.08,12.69-2.88-.9-12.59-4.31-9.58-19.44s11.3-17.68,18-16S194.38,115.08,189.83,129.82Z" style="fill:#f7a9a0"></path><path d="M187.8,127.88c-.32-.17-.59-.38-.9-.58a1.73,1.73,0,0,1-.8-.76.57.57,0,0,1,.24-.63,1.37,1.37,0,0,1,1.37.19,2,2,0,0,1,.92,1.11A.59.59,0,0,1,187.8,127.88Z" style="fill:#263238"></path><path d="M178.64,122.77c.34.12.68.17,1,.26a1.76,1.76,0,0,0,1.11.06.56.56,0,0,0,.29-.61,1.39,1.39,0,0,0-1.07-.87,2,2,0,0,0-1.44.09A.59.59,0,0,0,178.64,122.77Z" style="fill:#263238"></path><path d="M179.22,127.08s-.1,0-.11.06c-.35,1-.91,2.07-1.93,2a0,0,0,0,0,0,.06C178.31,129.52,179.05,128.08,179.22,127.08Z" style="fill:#263238"></path><path d="M178.74,125.72c-1.53-.73-2.88,2.38-1.46,3.06S180,126.33,178.74,125.72Z" style="fill:#263238"></path><path d="M178.06,125.62a2.44,2.44,0,0,1-1.09.14c-.4-.12-.54-.57-.65-1,0,0-.06,0-.07,0a1.24,1.24,0,0,0,.29,1.67,1.27,1.27,0,0,0,1.61-.55C178.22,125.8,178.2,125.6,178.06,125.62Z" style="fill:#263238"></path><path d="M184.74,129.62s.06.08,0,.11c-.46,1-.84,2.11-.11,2.82,0,0,0,.06,0,0C183.64,132,184.15,130.44,184.74,129.62Z" style="fill:#263238"></path><path d="M186.05,129c1.59.58.32,3.73-1.16,3.19S184.72,128.52,186.05,129Z" style="fill:#263238"></path><path d="M186.6,129.42c.2.29.35.71.66.88a1.28,1.28,0,0,0,1.17-.23s.06,0,0,.05c-.23.61-.72,1.13-1.4,1s-.83-.86-.73-1.53C186.36,129.43,186.52,129.3,186.6,129.42Z" style="fill:#263238"></path><path d="M175.78,134.33c.08.34.11.76.41,1a2.89,2.89,0,0,0,1.1.38s.05.05,0,.07a1.41,1.41,0,0,1-1.43-.23,1.12,1.12,0,0,1-.21-1.22C175.68,134.26,175.76,134.28,175.78,134.33Z" style="fill:#263238"></path><path d="M181.18,133.12s-.57,1.48-.93,2.13c0,.06-.21,0-.43-.11h0a3.54,3.54,0,0,1-2.36-2.81c0-.08.11-.11.15,0a5.3,5.3,0,0,0,2.37,2.36c.14-.16.89-2.57,1-2.52a6.17,6.17,0,0,1,1.29,1.15c1.28-3.05,2.05-6.27,3.37-9.29.05-.1.21,0,.19.05a53.58,53.58,0,0,1-3.2,10.16C182.44,134.6,181.37,133.37,181.18,133.12Z" style="fill:#263238"></path><path d="M163.6,123c2.46,1.6,6.05-4.08,6.05-4.08s12.09,3.53,17.45-5.11A17.09,17.09,0,0,0,190.78,126s4.45-10.16-2.52-15.94c0,0-8.08-8.33-17.37-3.22S162,122,163.6,123Z" style="fill:#263238"></path><path d="M187.47,113.19a11.13,11.13,0,0,1-2.52,3.92,11.45,11.45,0,0,1-3.89,2.65c-.35.17-.75.25-1.12.39l-.56.18-.58.11c-.39.06-.78.14-1.17.19s-.79,0-1.18.05l-.59,0-.58,0-1.17-.1c-.76-.14-1.52-.32-2.27-.5.78,0,1.54.13,2.3.16h1.72l.56-.07c.38,0,.75-.09,1.13-.12s.74-.16,1.1-.23l.55-.12.54-.18a9.37,9.37,0,0,0,1-.38,13.85,13.85,0,0,0,5.36-4A14.83,14.83,0,0,0,187.47,113.19Z" style="fill:#263238"></path><path d="M165.62,124s-1.3-5.73-3.78-5.44-2.76,7.71-.74,9.56a2.61,2.61,0,0,0,3.77,0Z" style="fill:#f7a9a0"></path><path d="M161.81,120.66s-.06,0,0,.06c1.39,1.35,1.64,3.25,1.6,5.1a1.43,1.43,0,0,0-1.85-1.17c-.05,0,0,.09,0,.1a1.61,1.61,0,0,1,1.43,1.19,7.55,7.55,0,0,1,.24,1.64c0,.18.32.21.33,0v0C164.45,125.44,164,121.8,161.81,120.66Z" style="fill:#263238"></path></g></svg>
