<?xml version="1.0" encoding="UTF-8"?>
<svg width="94px" height="81px" viewBox="0 0 94 81" version="1.1" xmlns="http://www.w3.org/2000/svg" xmlns:xlink="http://www.w3.org/1999/xlink">
    <title>形状</title>
    <defs>
        <linearGradient x1="99.7871879%" y1="50%" x2="0%" y2="50%" id="linearGradient-1">
            <stop stop-color="#0FC7D5" offset="0%"></stop>
            <stop stop-color="#3EE1D8" offset="44.8151284%"></stop>
            <stop stop-color="#88E5E0" offset="100%"></stop>
        </linearGradient>
    </defs>
    <g id="页面-2" stroke="none" stroke-width="1" fill="none" fill-rule="evenodd">
        <g id="编组-3备份-5" fill="url(#linearGradient-1)" fill-rule="nonzero">
            <path d="M7.40606061,34.8790036 C4.25971112,34.8790036 1.70909091,32.2978694 1.70909091,29.113879 C1.70909091,25.9298886 4.25971112,23.3487544 7.40606061,23.3487544 L40.4484848,23.3487544 C43.5948343,23.3487544 46.1454545,20.7676203 46.1454545,17.5836299 C46.1454545,14.4536055 43.6805633,11.9061746 40.6079458,11.8207202 L40.4484848,11.8185053 L32.4727273,11.8185053 C29.3263778,11.8185053 26.7757576,9.23737116 26.7757576,6.05338078 C26.7757576,2.86939041 29.3263778,0.288256228 32.4727273,0.288256228 L61.9830303,0.288256228 L62.3946396,0.290754343 C68.0098149,0.359036166 73.2087734,1.82709535 77.9915152,4.69493189 C82.8909091,7.63271567 86.7838384,11.5948583 89.670303,16.5813597 C92.4880423,21.4491349 93.9304565,26.7405269 93.9975455,32.4555357 L94,32.8744631 L94,48.4137931 L93.9975455,48.8327205 C93.9304565,54.5477293 92.4880423,59.8391214 89.670303,64.7068966 C86.7838384,69.693398 82.8909091,73.6555406 77.9915152,76.5933243 C73.2087734,79.4611609 68.0098149,80.9292201 62.3946396,80.9975019 L61.9830303,81 L31.3333333,81 C28.1869838,81 25.6363636,78.4188658 25.6363636,75.2348754 C25.6363636,72.0508851 28.1869838,69.4697509 31.3333333,69.4697509 L41.3030303,69.4697509 C44.4493798,69.4697509 47,66.8886167 47,63.7046263 C47,60.5746019 44.5351088,58.027171 41.4624912,57.9417166 L41.3030303,57.9395018 L17.6606061,57.9395018 C14.5142566,57.9395018 11.9636364,55.3583676 11.9636364,52.1743772 C11.9636364,48.9903869 14.5142566,46.4092527 17.6606061,46.4092527 L32.4727273,46.4092527 L32.4733349,46.4021413 C35.4870631,46.2516424 37.8848485,43.7312516 37.8848485,40.6441281 C37.8848485,37.5570047 35.4870631,35.0366138 32.4733349,34.8861149 L32.4727273,34.8790036 L7.40606061,34.8790036 Z M15.3818182,69.4697509 C18.5281677,69.4697509 21.0787879,72.0508851 21.0787879,75.2348754 C21.0787879,78.4188658 18.5281677,81 15.3818182,81 L5.6969697,81 C2.55062021,81 0,78.4188658 0,75.2348754 C0,72.0508851 2.55062021,69.4697509 5.6969697,69.4697509 L15.3818182,69.4697509 Z M52.9818182,34.8790036 L50.1333333,34.8790036 C46.9869838,34.8790036 44.4363636,37.4601377 44.4363636,40.6441281 C44.4363636,43.7741525 46.9012549,46.3215834 49.9738724,46.4070378 L50.1333333,46.4092527 L52.9818182,46.4092527 C56.1281677,46.4092527 58.6787879,43.8281185 58.6787879,40.6441281 C58.6787879,37.5141037 56.2138966,34.9666728 53.1412791,34.8812184 L52.9818182,34.8790036 Z M18.230303,0 C21.3766525,0 23.9272727,2.58113418 23.9272727,5.76512456 C23.9272727,8.94911493 21.3766525,11.5302491 18.230303,11.5302491 C15.0839535,11.5302491 12.5333333,8.94911493 12.5333333,5.76512456 C12.5333333,2.58113418 15.0839535,0 18.230303,0 Z" id="形状"></path>
        </g>
    </g>
</svg>