<?xml version="1.0" encoding="UTF-8"?>
<svg width="241px" height="196px" viewBox="0 0 241 196" version="1.1" xmlns="http://www.w3.org/2000/svg" xmlns:xlink="http://www.w3.org/1999/xlink">
    <title>编组 3备份</title>
    <g id="页面-2" stroke="none" stroke-width="1" fill="none" fill-rule="evenodd">
        <g id="编组-3备份" fill="#37B3AC" fill-rule="nonzero">
            <path d="M18.9878788,84.3985765 C10.9211743,84.3985765 4.38181818,78.1528691 4.38181818,70.4483986 C4.38181818,62.743928 10.9211743,56.4982206 18.9878788,56.4982206 L103.70303,56.4982206 C111.769735,56.4982206 118.309091,50.2525132 118.309091,42.5480427 C118.309091,34.9741564 111.989529,28.8100027 104.111861,28.6032241 L103.70303,28.5978648 L83.2545455,28.5978648 C75.1878409,28.5978648 68.6484848,22.3521574 68.6484848,14.6476868 C68.6484848,6.9432163 75.1878409,0.697508897 83.2545455,0.697508897 L158.913939,0.697508897 L159.969236,0.703553719 C174.365589,0.86877887 187.694834,4.42111961 199.95697,11.3605759 C212.518182,18.4692873 222.49899,28.0566941 229.899394,40.1227963 C237.123598,51.9016103 240.821702,64.7054725 240.993707,78.5343828 L241,79.5480836 L241,117.149425 L240.993707,118.163126 C240.821702,131.992036 237.123598,144.795899 229.899394,156.574713 C222.49899,168.640815 212.518182,178.228222 199.95697,185.336933 C187.694834,192.276389 174.365589,195.82873 159.969236,195.993955 L158.913939,196 L80.3333333,196 C72.2666288,196 65.7272727,189.754293 65.7272727,182.049822 C65.7272727,174.345352 72.2666288,168.099644 80.3333333,168.099644 L105.893939,168.099644 C113.960644,168.099644 120.5,161.853937 120.5,154.149466 C120.5,146.57558 114.180438,140.411426 106.30277,140.204648 L105.893939,140.199288 L45.2787879,140.199288 C37.2120834,140.199288 30.6727273,133.953581 30.6727273,126.24911 C30.6727273,118.54464 37.2120834,112.298932 45.2787879,112.298932 L83.2545455,112.298932 L83.2561032,112.281725 C90.9827896,111.917554 97.130303,105.818831 97.130303,98.3487544 C97.130303,90.8786779 90.9827896,84.7799545 83.2561032,84.4157842 L83.2545455,84.3985765 L18.9878788,84.3985765 Z M39.4363636,168.099644 C47.5030682,168.099644 54.0424242,174.345352 54.0424242,182.049822 C54.0424242,189.754293 47.5030682,196 39.4363636,196 L14.6060606,196 C6.53935608,196 0,189.754293 0,182.049822 C0,174.345352 6.53935608,168.099644 14.6060606,168.099644 L39.4363636,168.099644 Z M135.836364,84.3985765 L128.533333,84.3985765 C120.466629,84.3985765 113.927273,90.6442839 113.927273,98.3487544 C113.927273,105.922641 120.246834,112.086794 128.124503,112.293573 L128.533333,112.298932 L135.836364,112.298932 C143.903068,112.298932 150.442424,106.053225 150.442424,98.3487544 C150.442424,90.7748682 144.122863,84.6107145 136.245194,84.4039359 L135.836364,84.3985765 Z M46.7393939,0 C54.8060985,0 61.3454545,6.2457074 61.3454545,13.9501779 C61.3454545,21.6546485 54.8060985,27.9003559 46.7393939,27.9003559 C38.6726894,27.9003559 32.1333333,21.6546485 32.1333333,13.9501779 C32.1333333,6.2457074 38.6726894,0 46.7393939,0 Z" id="形状"></path>
        </g>
    </g>
</svg>